<?xml version="1.0" standalone="no"?>
<!DOCTYPE svg PUBLIC "-//W3C//DTD SVG 20010904//EN"
 "http://www.w3.org/TR/2001/REC-SVG-20010904/DTD/svg10.dtd">
<svg version="1.0" xmlns="http://www.w3.org/2000/svg"
 width="500.000000pt" height="500.000000pt" viewBox="0 0 500.000000 500.000000"
 preserveAspectRatio="xMidYMid meet">

<g transform="translate(0.000000,500.000000) scale(0.100000,-0.100000)"
fill="#000000" stroke="none">
<path d="M2357 4890 c-245 -23 -504 -108 -708 -231 -428 -257 -677 -670 -774
-1284 -13 -85 -17 -444 -6 -541 20 -171 61 -344 82 -344 19 0 100 124 115 176
20 71 20 193 -2 314 -9 54 -14 113 -10 131 3 19 37 83 75 142 l68 108 -28 29
c-46 46 -33 106 39 183 l27 28 -50 -22 c-27 -12 -66 -22 -87 -22 -74 0 -117
57 -83 109 15 23 15 27 1 43 -29 32 -18 74 25 96 38 20 69 19 130 -5 l52 -19
-21 22 c-65 71 -79 141 -36 184 20 20 32 24 56 19 23 -5 34 -1 47 15 26 33 69
28 104 -11 27 -30 28 -36 25 -105 -2 -40 0 -71 5 -68 4 2 7 9 7 14 0 18 48 82
77 100 55 36 123 14 123 -41 0 -20 6 -31 20 -35 31 -10 50 -34 50 -64 0 -45
-34 -78 -103 -100 -34 -10 -55 -21 -47 -24 8 -3 34 -10 57 -16 97 -26 125
-134 43 -163 -9 -3 -16 -19 -18 -34 -3 -41 -38 -67 -81 -60 -40 6 -61 24 -100
83 l-29 43 2 -69 c1 -56 -3 -75 -20 -97 -26 -36 -64 -46 -101 -27 -17 9 -29
10 -31 4 -2 -6 -28 -50 -59 -98 -98 -156 -94 -141 -72 -268 50 -300 4 -426
-223 -611 -37 -31 -71 -66 -74 -78 -6 -26 28 -120 79 -221 73 -143 120 -182
257 -214 151 -35 227 -86 270 -183 34 -78 27 -150 -14 -135 -10 4 -16 18 -16
37 0 68 -58 153 -130 190 -20 10 -70 25 -112 34 -42 9 -88 20 -103 26 -14 5
-29 10 -32 10 -3 0 -3 -29 -1 -64 4 -51 19 -92 74 -212 l69 -149 0 -162 c0
-89 3 -165 8 -169 4 -4 7 -2 7 4 0 20 72 92 111 113 49 24 124 25 169 1 46
-25 84 -92 83 -149 -1 -74 -71 -143 -143 -143 -33 0 -70 15 -82 34 -11 17 -9
84 2 91 7 4 9 -2 5 -17 -9 -35 23 -71 63 -70 90 2 141 109 92 190 -23 38 -54
52 -116 52 -79 0 -153 -54 -184 -134 -14 -39 16 -144 62 -212 29 -42 121 -124
140 -124 4 0 4 17 1 37 -10 64 -9 68 16 68 21 0 25 -8 42 -75 24 -94 67 -185
124 -265 51 -71 158 -173 191 -181 51 -13 178 85 190 146 5 23 11 26 54 28 92
4 209 63 225 112 6 20 35 28 35 11 0 -5 24 -15 53 -21 73 -17 120 -3 208 61
13 10 29 5 80 -20 81 -40 150 -49 203 -27 l38 16 53 -54 c62 -62 107 -81 176
-73 49 6 49 6 65 -31 19 -46 57 -87 96 -103 28 -12 31 -10 90 47 112 110 194
256 206 368 7 57 9 61 32 61 21 0 26 -5 28 -32 2 -18 -1 -48 -7 -68 -11 -41
-9 -42 35 -14 81 50 142 152 165 277 13 66 7 84 -43 138 -70 76 -180 91 -235
32 -51 -54 -53 -125 -5 -171 40 -38 78 -50 110 -34 23 11 27 19 27 55 0 36 2
40 13 25 38 -52 -8 -123 -79 -123 -77 0 -149 72 -149 147 0 43 41 115 79 140
75 50 193 19 260 -68 l34 -44 -6 121 c-8 140 -4 157 83 342 35 76 55 135 62
183 6 38 8 72 5 75 -9 9 -159 -25 -204 -47 -76 -37 -133 -120 -133 -197 0 -29
-29 -41 -45 -19 -9 12 -10 31 -4 62 24 127 117 209 273 241 132 27 168 49 230
144 45 68 111 214 122 269 6 29 2 36 -42 74 -187 163 -239 233 -265 355 -13
65 -7 198 15 312 17 87 15 93 -64 220 -29 46 -67 114 -85 151 l-32 67 -12 -33
c-14 -39 -37 -61 -73 -70 -21 -6 -33 -1 -55 21 -20 20 -36 27 -58 25 -34 -2
-63 22 -66 55 -5 46 4 66 51 117 l50 55 -50 -19 c-61 -23 -101 -24 -140 -4
-38 20 -49 59 -26 99 12 20 14 32 6 40 -5 5 -10 21 -10 34 0 80 80 98 188 43
l42 -22 -34 46 c-41 53 -53 103 -36 145 13 32 45 46 82 37 13 -4 31 2 46 14
34 27 64 24 95 -9 24 -25 27 -35 27 -102 l0 -73 23 34 c29 43 82 79 118 79 37
0 69 -32 69 -67 0 -21 8 -33 30 -45 23 -13 30 -24 30 -47 0 -59 -60 -101 -160
-114 -19 -2 -12 -7 30 -20 94 -28 140 -99 99 -152 -11 -14 -29 -25 -40 -25
-14 0 -19 -7 -19 -25 0 -51 -61 -81 -111 -55 -10 6 -19 8 -19 5 0 -12 34 -71
97 -171 35 -56 66 -117 70 -137 3 -19 -2 -79 -11 -134 -21 -119 -22 -242 -2
-306 23 -76 114 -204 129 -180 11 17 47 204 62 323 18 134 22 361 10 500 -19
226 -87 470 -189 675 -81 165 -162 279 -300 422 -214 224 -446 365 -723 443
-172 48 -386 67 -566 50z m234 -107 c35 -30 68 -94 69 -132 l0 -25 -29 28
c-54 51 -124 54 -238 10 -73 -28 -102 -30 -164 -8 -45 17 -48 16 -94 -6 -55
-27 -103 -87 -111 -142 -9 -55 -22 -56 -30 -2 -9 60 1 125 26 173 35 70 81 86
154 56 l37 -16 31 36 c37 41 69 45 129 15 l40 -21 37 31 c48 40 98 41 143 3z
m370 -14 c85 -26 116 -98 91 -206 -15 -62 -15 -63 17 -138 35 -83 38 -113 16
-155 -20 -39 -56 -65 -123 -90 -69 -26 -93 -47 -132 -116 -36 -65 -63 -84
-117 -84 -33 0 -50 7 -78 31 -19 17 -35 35 -35 39 0 4 18 5 41 3 70 -8 104 4
150 54 24 25 70 73 101 105 76 79 89 120 60 190 -20 47 -20 53 -6 92 34 92 35
98 16 135 -26 54 -60 59 -168 27 -48 -14 -89 -24 -91 -22 -5 5 53 75 82 98 30
23 89 47 119 48 10 0 36 -5 57 -11z m-1048 -130 c11 -15 12 -30 6 -60 -15 -65
14 -112 115 -185 l30 -21 -38 -18 c-50 -24 -76 -67 -76 -127 0 -59 -7 -60 -86
-12 -70 42 -101 69 -120 106 -23 44 -17 68 26 109 l39 38 -6 63 c-5 59 -3 66
22 96 31 37 67 42 88 11z m672 -13 c57 -24 74 -84 30 -104 -35 -16 -68 -15
-112 3 -48 20 -64 19 -102 -9 -18 -13 -49 -27 -69 -31 -20 -4 -49 -16 -64 -27
l-28 -19 0 28 c0 34 31 88 60 103 12 6 38 13 58 15 20 2 57 15 82 29 51 29 95
33 145 12z m320 -11 c32 -31 34 -103 5 -151 -22 -35 -91 -74 -131 -74 -44 0
-97 -20 -149 -56 -35 -24 -48 -30 -41 -17 13 25 94 100 153 142 l47 34 -19 25
c-28 35 -25 66 11 96 40 34 91 35 124 1z m-687 -18 c8 -10 7 -28 -3 -68 -21
-76 -19 -94 13 -131 27 -30 55 -37 108 -27 58 10 114 -29 114 -80 0 -16 -3
-32 -7 -34 -19 -11 -143 16 -205 45 -73 33 -143 98 -154 143 -21 85 88 208
134 152z m274 -114 c54 -48 -31 -126 -106 -97 -34 13 -16 64 34 98 31 20 49
20 72 -1z m134 -67 c-6 -33 -117 -152 -129 -139 -4 3 -7 22 -7 40 0 29 10 45
65 98 36 35 66 70 66 77 1 7 4 0 6 -16 3 -16 2 -43 -1 -60z m-935 49 c26 -14
28 -18 18 -37 -17 -32 -5 -104 26 -148 33 -48 28 -70 -17 -70 -72 0 -151 55
-209 143 -13 20 -32 40 -41 43 -30 9 -21 20 45 52 70 35 130 41 178 17z m1587
-4 c20 -11 56 -33 79 -48 l42 -29 -84 -72 c-90 -78 -135 -102 -188 -102 -46 0
-51 9 -22 36 14 13 26 31 26 41 1 10 3 29 4 43 2 14 -4 43 -13 64 -15 39 -15
39 14 63 36 29 91 30 142 4z m-363 -152 c15 -23 -6 -59 -45 -79 -21 -11 -53
-40 -70 -65 -57 -82 -102 -87 -234 -24 l-89 43 44 39 c63 57 99 70 173 62 47
-5 73 -2 116 14 63 22 96 26 105 10z m-630 -47 c97 -47 208 -117 242 -154 l23
-24 -115 1 -115 0 -53 58 c-29 31 -59 57 -67 57 -8 0 -39 -5 -69 -11 -86 -17
-132 8 -117 64 9 38 53 58 122 54 46 -2 81 -13 149 -45z m-517 -147 c0 -41 3
-79 6 -84 9 -15 -23 -41 -50 -41 -14 0 -39 6 -58 14 -38 16 -106 73 -106 90 0
25 131 96 176 96 l32 0 0 -75z m1565 64 c12 -6 57 -34 99 -61 l77 -50 -57 -49
c-74 -64 -116 -77 -166 -54 l-36 17 6 54 c7 60 -7 109 -38 125 -10 5 -16 14
-13 20 8 13 102 11 128 -2z m-1429 -28 c80 -45 134 -56 198 -40 76 18 95 14
143 -30 57 -52 115 -81 178 -88 78 -9 87 -16 87 -71 0 -87 -63 -146 -170 -159
-62 -7 -123 8 -234 59 -97 45 -158 56 -205 40 -30 -11 -31 -10 -31 21 0 17
-16 65 -37 106 -38 78 -47 147 -23 176 18 21 34 19 94 -14z m1275 -2 c35 -35
55 -98 47 -145 -9 -45 -40 -80 -102 -115 -34 -19 -72 -54 -104 -94 -57 -72
-101 -97 -182 -103 -89 -7 -125 4 -178 54 -52 49 -84 112 -95 188 -7 46 -6 49
11 41 99 -41 125 -48 189 -48 94 -2 143 25 208 113 96 131 105 140 142 140 24
0 42 -9 64 -31z m-717 -554 l22 -23 29 24 c51 43 144 28 173 -27 39 -77 0
-172 -117 -284 l-80 -76 -50 41 c-152 128 -208 266 -136 338 44 44 120 47 159
7z m-346 -71 c45 -21 138 -123 169 -185 14 -26 25 -51 25 -53 0 -10 -205 136
-242 172 -51 49 -50 73 5 81 5 0 24 -6 43 -15z m841 -1 c7 -18 -60 -85 -138
-138 -24 -16 -68 -47 -96 -68 -29 -21 -53 -34 -53 -30 0 14 50 96 88 146 21
27 57 62 81 78 51 33 108 39 118 12z m-952 -107 c75 -37 141 -89 176 -137 l22
-31 -33 17 c-61 31 -125 46 -229 52 -92 5 -108 9 -128 29 -23 23 -30 59 -15
80 29 44 105 40 207 -10z m1167 27 c10 -9 18 -30 18 -49 0 -50 -33 -67 -134
-70 -94 -3 -162 -17 -223 -44 -39 -17 -42 -17 -34 -2 11 21 63 69 113 106 89
66 220 96 260 59z m-1387 -217 c0 -36 -27 -56 -52 -40 -40 25 -20 77 26 72 21
-2 26 -8 26 -32z m1505 14 c15 -28 -4 -60 -35 -60 -31 0 -50 32 -35 60 6 12
21 20 35 20 14 0 29 -8 35 -20z m-1319 -11 c9 -18 7 -25 -10 -42 -17 -18 -24
-19 -46 -9 -42 19 -27 72 22 72 12 0 27 -9 34 -21z m1137 4 c12 -23 5 -40 -19
-53 -39 -22 -78 27 -47 58 18 18 56 15 66 -5z m-1493 -53 c8 -24 -3 -48 -26
-55 -22 -7 -35 -1 -49 25 -8 15 -6 24 9 39 23 23 57 18 66 -9z m1849 -2 c8
-13 8 -23 0 -35 -16 -26 -40 -27 -64 -3 -17 17 -18 24 -10 41 14 25 58 23 74
-3z m-1340 -14 c9 -8 16 -22 16 -29 0 -13 -26 -45 -36 -45 -19 0 -44 24 -44
43 0 43 35 60 64 31z m201 -41 c19 -32 47 -94 62 -138 34 -108 36 -256 3 -360
-20 -63 -98 -206 -120 -220 -5 -3 4 27 21 67 109 263 116 460 24 642 -18 36
-32 66 -30 66 2 0 20 -26 40 -57z m613 45 c31 -31 -11 -88 -50 -67 -34 18 -17
79 22 79 9 0 21 -5 28 -12z m-259 -50 c-98 -193 -91 -359 30 -668 l22 -55 -25
30 c-39 47 -94 156 -111 221 -20 76 -19 229 1 308 19 75 83 206 100 206 3 0
-5 -19 -17 -42z m-774 17 c203 -53 320 -235 271 -422 -34 -135 -125 -227 -309
-313 -136 -64 -348 -109 -449 -95 -140 20 -191 153 -138 361 84 328 362 537
625 469z m1374 0 c215 -51 381 -243 437 -504 18 -86 18 -145 -1 -208 -31 -105
-114 -136 -293 -110 -252 36 -472 149 -562 288 -137 211 -27 472 225 535 68
17 118 16 194 -1z m-1821 -47 c18 -18 15 -56 -5 -66 -28 -15 -63 3 -63 32 0
37 43 59 68 34z m2146 -7 c19 -21 14 -60 -7 -62 -26 -3 -43 3 -54 19 -17 21
-16 27 3 46 21 21 37 20 58 -3z m-1352 -66 c19 -41 -28 -75 -60 -43 -13 13
-16 50 -5 61 16 17 54 6 65 -18z m572 3 c16 -26 -4 -53 -40 -53 -23 0 -30 5
-32 23 -7 47 47 69 72 30z m-1479 -78 c33 -36 -11 -90 -51 -62 -22 15 -24 42
-4 62 25 25 32 25 55 0z m2380 -30 c0 -13 -8 -28 -17 -34 -40 -25 -80 43 -42
71 24 17 59 -5 59 -37z m-1431 -56 c9 -8 16 -22 16 -29 0 -17 -27 -45 -44 -45
-19 0 -36 22 -36 45 0 41 36 58 64 29z m467 6 c28 -16 25 -58 -6 -72 -19 -8
-28 -8 -40 2 -20 17 -19 57 3 69 21 13 20 13 43 1z m-1493 -82 c30 -30 -5 -83
-45 -67 -39 14 -25 79 17 79 9 0 21 -5 28 -12z m2532 -8 c14 -26 5 -56 -19
-63 -27 -7 -51 11 -51 36 0 46 50 64 70 27z m-1536 -96 c9 -8 16 -22 16 -29 0
-17 -27 -45 -44 -45 -19 0 -36 22 -36 45 0 41 36 58 64 29z m530 0 c22 -21 20
-51 -4 -64 -42 -22 -82 34 -48 68 16 16 33 15 52 -4z m-1569 -104 c0 -30 -4
-35 -26 -38 -36 -4 -55 21 -40 54 9 20 17 25 39 22 24 -3 27 -7 27 -38z m2621
15 c9 -36 -2 -55 -31 -55 -32 0 -55 41 -35 65 20 25 59 19 66 -10z m-1670 -77
c6 -21 -20 -58 -42 -58 -15 0 -44 27 -44 41 0 5 9 18 19 28 23 23 58 18 67
-11z m732 -10 c2 -14 -4 -31 -13 -38 -24 -20 -65 2 -65 34 0 50 72 54 78 4z
m-300 -202 c122 -204 131 -223 149 -313 31 -160 -27 -269 -137 -257 -14 1 -34
3 -44 3 -11 1 -36 19 -56 40 l-38 39 -10 -23 c-16 -35 -68 -58 -126 -56 -91 2
-136 59 -136 171 0 126 29 193 208 482 79 126 57 137 190 -86z m-1370 106 c2
-13 -2 -30 -8 -38 -18 -20 -57 -17 -70 5 -13 25 -13 27 6 46 24 24 68 16 72
-13z m2600 16 c18 -18 15 -56 -5 -66 -22 -12 -58 1 -67 23 -15 40 41 74 72 43z
m-1813 -32 c0 -36 -27 -56 -52 -40 -40 25 -20 77 26 72 21 -2 26 -8 26 -32z
m1025 14 c13 -25 -3 -60 -27 -60 -19 0 -53 28 -53 45 0 36 62 48 80 15z
m-1190 -75 c14 -17 5 -51 -17 -59 -22 -9 -50 1 -57 20 -16 41 45 73 74 39z
m1348 3 c32 -32 -2 -79 -43 -60 -24 11 -35 49 -18 65 11 11 48 8 61 -5z
m-1060 -53 c75 -63 57 -171 -43 -264 -53 -49 -131 -87 -260 -126 -172 -52
-216 -87 -216 -173 -1 -91 35 -137 106 -136 77 2 155 64 155 124 0 37 -28 77
-62 89 -26 9 -38 8 -71 -8 -37 -19 -38 -19 -21 0 19 21 72 34 103 24 35 -11
74 -71 73 -111 -5 -125 -184 -204 -277 -123 -41 36 -71 121 -62 176 15 90 74
137 271 214 160 62 177 71 228 117 49 44 72 93 63 133 -13 58 -84 62 -130 7
-14 -16 -25 -23 -25 -16 0 36 73 98 117 98 12 0 35 -11 51 -25z m770 11 c34
-17 57 -44 67 -75 7 -22 5 -21 -21 8 -38 41 -85 50 -113 22 -40 -40 -22 -101
48 -164 49 -44 82 -61 237 -121 182 -70 230 -107 253 -193 23 -86 -31 -203
-102 -221 -118 -31 -260 84 -227 183 14 42 63 85 96 85 24 0 84 -25 84 -35 0
-3 -15 3 -34 12 -29 14 -39 14 -66 3 -73 -30 -79 -124 -10 -178 96 -75 209
-27 212 90 1 93 -46 131 -232 188 -128 39 -204 78 -260 133 -48 48 -65 78 -75
128 -12 67 41 148 98 149 10 0 30 -6 45 -14z m-1787 -11 c36 -19 69 -70 69
-108 0 -34 -40 -77 -71 -77 -26 0 -59 27 -59 48 0 9 6 6 19 -9 16 -21 22 -22
45 -11 32 14 34 49 5 86 -38 48 -126 21 -149 -48 -36 -111 70 -204 270 -235
122 -20 201 -86 199 -166 -1 -28 -2 -28 -10 8 -20 87 -62 113 -215 133 -127
16 -191 43 -243 99 -57 62 -74 134 -47 198 17 41 45 65 93 83 49 17 58 17 94
-1z m189 -5 c24 -24 25 -34 4 -54 -18 -19 -28 -20 -55 -6 -24 13 -25 56 -1 69
24 15 29 14 52 -9z m358 8 c22 -22 14 -57 -13 -64 -46 -11 -77 42 -37 65 23
14 36 13 50 -1z m1706 -4 c19 -19 20 -36 4 -52 -34 -34 -90 6 -68 48 13 24 43
26 64 4z m360 0 c23 -22 20 -41 -8 -59 -50 -33 -92 26 -44 59 28 20 33 20 52
0z m-2244 -29 c26 -32 -13 -81 -47 -59 -35 22 -23 74 17 74 10 0 23 -7 30 -15z
m2068 3 c30 -30 0 -75 -42 -64 -29 7 -40 31 -26 57 12 21 50 25 68 7z m377
-16 c67 -35 92 -111 65 -192 -33 -96 -116 -152 -255 -170 -170 -23 -212 -42
-239 -110 -19 -48 -28 -53 -16 -9 13 45 34 74 72 97 32 20 59 28 183 52 137
28 215 96 215 189 0 102 -137 153 -168 62 -20 -57 39 -97 72 -49 9 12 16 18
16 12 0 -25 -33 -54 -61 -54 -41 0 -69 31 -69 78 0 95 94 144 185 94z m-2369
-50 c46 -31 45 -116 -3 -300 -19 -75 -24 -70 -54 54 -27 115 -29 207 -4 234
19 21 42 25 61 12z m1861 -10 c23 -14 35 -66 28 -122 -8 -73 -46 -230 -55
-230 -16 0 -53 167 -54 241 -1 62 3 81 18 98 20 22 42 26 63 13z m-234 -100
c39 -26 91 -91 122 -151 19 -39 23 -40 -95 40 -47 32 -99 72 -115 89 -29 31
-29 32 -11 46 24 17 48 11 99 -24z m-1343 12 c0 -9 -13 -28 -29 -43 -34 -32
-212 -153 -218 -148 -8 9 78 126 122 165 39 34 55 42 86 42 29 0 39 -4 39 -16z
m-512 -18 c55 -29 120 -118 151 -206 11 -30 18 -57 16 -61 -2 -3 -32 22 -67
55 -35 34 -81 70 -103 81 -60 30 -85 55 -85 86 0 30 23 59 46 59 8 0 27 -6 42
-14z m2344 -13 c38 -34 18 -83 -50 -117 -57 -29 -124 -83 -165 -134 l-30 -37
7 35 c11 59 62 156 108 205 59 65 96 79 130 48z m123 -378 c39 -38 31 -79 -18
-100 -71 -30 -124 57 -65 108 28 24 55 21 83 -8z m-2551 0 c26 -27 29 -56 9
-84 -39 -52 -115 -30 -115 34 0 54 69 87 106 50z m2447 -186 c27 -27 22 -69
-12 -88 -24 -13 -29 -13 -53 2 -34 22 -36 69 -4 91 30 21 44 20 69 -5z m-2357
-2 c21 -16 24 -60 6 -82 -16 -20 -59 -19 -82 2 -52 47 19 122 76 80z m693 2
c15 -6 37 -19 49 -30 20 -18 23 -19 59 -3 43 18 89 13 116 -12 17 -15 22 -15
62 5 53 26 82 26 126 3 33 -18 34 -18 80 6 52 26 86 24 131 -8 23 -16 33 -18
55 -10 34 13 91 13 115 0 15 -8 27 -5 55 15 49 33 94 40 136 22 28 -11 41 -12
70 -2 45 16 85 9 107 -19 13 -18 25 -22 53 -18 27 3 42 -2 64 -21 28 -24 29
-26 27 -123 -2 -91 4 -141 23 -186 11 -27 -45 -78 -87 -78 -24 0 -42 -9 -67
-35 -19 -20 -48 -37 -67 -41 -20 -4 -40 -16 -50 -33 -37 -56 -84 -69 -162 -46
-50 15 -54 15 -79 -5 -33 -25 -83 -26 -132 0 -38 19 -39 19 -77 0 -47 -24 -77
-25 -128 -2 -38 17 -41 17 -75 0 -45 -23 -75 -22 -128 2 -40 18 -46 18 -80 3
-27 -11 -52 -13 -88 -8 -27 4 -82 6 -122 5 -76 -1 -129 17 -167 59 -12 13 -29
20 -47 19 -38 -3 -75 19 -90 53 -8 20 -19 29 -35 29 -12 0 -35 11 -51 24 l-28
24 2 157 c1 112 5 161 15 172 19 23 71 43 97 36 15 -4 30 2 44 16 28 26 78 37
105 22 15 -8 30 -7 59 3 47 18 74 19 110 5z m-606 -159 c25 -14 25 -56 -1 -70
-45 -24 -86 44 -42 69 21 13 20 13 43 1z m2164 -24 c0 -36 -27 -56 -52 -40
-40 25 -20 77 26 72 21 -2 26 -8 26 -32z m-1822 -564 c21 -41 21 -43 3 -76
-10 -18 -40 -61 -68 -95 -57 -71 -54 -71 -123 19 -52 68 -74 110 -67 130 8 23
62 100 100 142 l34 37 50 -57 c28 -31 60 -76 71 -100z m1595 6 c15 -31 18 -47
11 -67 -10 -28 -113 -164 -128 -169 -10 -4 -127 148 -136 177 -8 26 16 71 79
150 l51 63 51 -57 c28 -31 60 -75 72 -97z"/>
<path d="M2435 2185 c-56 -91 -74 -135 -75 -187 0 -64 57 -99 105 -64 17 12
22 12 39 0 29 -20 63 -17 87 7 35 35 23 116 -28 204 -23 39 -50 81 -60 94
l-19 24 -49 -78z"/>
<path d="M1950 1449 c-25 -9 -25 -10 -25 -131 l0 -123 65 -11 c41 -8 67 -9 71
-3 3 6 7 36 8 69 1 32 6 82 10 110 8 48 7 52 -21 75 -31 26 -65 30 -108 14z"/>
<path d="M1798 1423 c-22 -25 -25 -37 -26 -110 l-1 -81 50 -12 c27 -7 53 -9
57 -6 13 14 15 205 2 221 -19 23 -54 18 -82 -12z"/>
<path d="M2921 1424 l-33 -28 6 -70 c4 -39 10 -88 13 -109 6 -41 -3 -39 106
-22 l39 6 -5 116 c-3 63 -8 117 -10 120 -3 2 -23 7 -44 10 -32 4 -45 0 -72
-23z"/>
<path d="M3102 1434 c-22 -15 -22 -20 -17 -117 4 -56 8 -103 10 -105 2 -3 25
0 51 4 l47 9 2 94 c1 79 -2 98 -17 113 -22 22 -47 23 -76 2z"/>
<path d="M2554 1426 c-18 -8 -35 -20 -40 -27 -4 -7 -9 -66 -12 -131 l-4 -118
30 0 c16 0 57 3 90 6 l62 7 -5 61 c-3 34 -7 88 -9 121 -3 46 -9 63 -26 77 -26
21 -44 22 -86 4z"/>
<path d="M2148 1415 c-23 -13 -27 -23 -33 -79 -4 -35 -8 -88 -9 -117 l-1 -54
69 -7 c38 -5 71 -6 73 -4 2 2 6 35 9 72 2 38 6 92 9 121 4 45 2 54 -17 67 -28
20 -65 20 -100 1z"/>
<path d="M2343 1411 c-38 -24 -40 -30 -48 -158 l-6 -103 43 -2 c55 -2 119 0
123 4 2 2 6 58 10 125 6 118 6 122 -17 137 -30 21 -66 20 -105 -3z"/>
<path d="M1675 1396 c-17 -11 -19 -23 -17 -73 4 -59 4 -60 38 -71 19 -5 34 -7
35 -4 17 135 -2 186 -56 148z"/>
<path d="M2723 1398 c-22 -10 -23 -15 -18 -92 10 -147 9 -144 58 -139 88 8
107 13 107 31 0 54 -24 198 -34 204 -16 11 -88 8 -113 -4z"/>
<path d="M3237 1393 c-4 -3 -7 -39 -7 -80 0 -78 4 -83 53 -64 20 8 25 18 30
68 5 47 3 60 -10 71 -18 13 -55 16 -66 5z"/>
<path d="M1656 1166 c-7 -56 2 -89 27 -99 26 -10 37 10 44 76 5 54 3 67 -8 67
-8 0 -24 3 -35 6 -19 5 -22 0 -28 -50z"/>
<path d="M3271 1206 l-33 -10 4 -59 c5 -62 16 -78 52 -69 37 9 45 20 36 55
-27 102 -22 94 -59 83z"/>
<path d="M1766 1144 c-13 -95 -8 -132 19 -150 51 -33 69 -6 87 132 6 40 4 42
-22 47 -15 4 -39 9 -52 12 -23 6 -26 3 -32 -41z"/>
<path d="M3116 1173 c-31 -5 -30 9 -10 -138 5 -39 9 -45 30 -45 13 0 37 12 53
28 l29 27 -11 68 c-12 73 -10 72 -91 60z"/>
<path d="M1900 1064 l-16 -96 25 -24 c29 -29 53 -36 112 -32 l44 3 -4 105 c-2
58 -5 108 -7 111 -2 3 -28 9 -58 13 -30 3 -60 8 -68 11 -10 4 -17 -19 -28 -91z"/>
<path d="M2970 1153 c-25 -2 -48 -7 -52 -11 -4 -4 -8 -54 -9 -112 l-2 -105 45
-14 c55 -17 92 -9 113 23 13 20 14 34 6 87 -6 35 -12 80 -14 99 -4 38 -8 40
-87 33z"/>
<path d="M2790 1133 c-30 -2 -59 -8 -64 -13 -6 -6 -12 -52 -14 -104 l-4 -95
31 -15 c40 -21 94 -20 114 2 12 13 17 43 20 112 4 102 1 121 -17 118 -6 -1
-36 -3 -66 -5z"/>
<path d="M2102 1023 c3 -78 7 -106 18 -113 20 -13 82 -12 115 0 l27 10 -6 88
c-3 48 -5 90 -6 94 0 8 -37 15 -109 22 l-43 4 4 -105z"/>
<path d="M2543 1112 l-43 -3 0 -95 0 -95 37 -15 c40 -17 98 -13 119 8 7 7 15
57 19 111 l7 98 -48 -3 c-27 -2 -68 -4 -91 -6z"/>
<path d="M2294 1018 c5 -69 11 -95 24 -104 27 -21 80 -27 112 -14 l30 12 0 99
0 99 -86 0 -87 0 7 -92z"/>
<path d="M1283 3744 c-21 -21 -24 -32 -19 -62 11 -70 83 -96 131 -47 50 49 15
135 -55 135 -20 0 -40 -9 -57 -26z"/>
<path d="M3624 3747 c-54 -47 -18 -137 55 -137 53 0 92 59 71 109 -21 52 -82
65 -126 28z"/>
<path d="M2470 577 c-49 -26 -62 -28 -126 -25 l-72 5 17 -41 c20 -47 50 -66
104 -66 39 0 104 28 126 53 7 9 11 35 9 59 l-3 44 -55 -29z"/>
<path d="M2554 583 c2 -16 5 -42 5 -60 1 -27 7 -34 44 -52 81 -39 155 -23 188
41 25 49 25 51 -15 44 -40 -8 -112 7 -169 34 -53 26 -59 25 -53 -7z"/>
<path d="M2825 525 l-18 -46 34 -36 c41 -43 103 -73 138 -67 14 3 41 20 59 38
l34 33 -42 7 c-57 9 -97 30 -146 78 l-42 40 -17 -47z"/>
<path d="M2227 545 c-10 -24 -108 -74 -170 -86 l-58 -12 38 -39 c37 -39 39
-40 95 -35 65 6 108 28 132 67 15 26 15 31 -1 74 -18 48 -27 56 -36 31z"/>
<path d="M2485 447 c-27 -14 -59 -21 -97 -21 l-56 -1 19 -37 c15 -29 27 -39
54 -44 45 -8 78 0 109 29 21 19 24 27 18 59 l-7 36 -40 -21z"/>
<path d="M2560 416 c0 -48 12 -63 58 -72 45 -9 100 13 117 46 21 40 20 40 -28
34 -33 -5 -56 -1 -92 15 -26 11 -49 21 -51 21 -2 0 -4 -20 -4 -44z"/>
<path d="M2768 400 c-25 -50 -25 -51 -7 -74 10 -13 34 -31 53 -40 40 -19 64
-12 116 33 27 23 31 30 17 31 -28 0 -79 29 -118 67 l-36 34 -25 -51z"/>
<path d="M3067 412 c-20 -21 -37 -46 -37 -55 0 -27 27 -73 56 -96 l27 -21 36
21 c20 11 47 28 60 38 l23 18 -37 23 c-20 12 -49 42 -64 66 l-27 44 -37 -38z"/>
<path d="M1949 397 c-30 -43 -72 -78 -124 -104 l-39 -21 72 -36 c39 -20 78
-36 85 -36 21 0 88 69 104 108 l15 35 -44 44 -44 44 -25 -34z"/>
<path d="M2256 394 c-21 -18 -55 -37 -75 -40 -65 -12 -67 -19 -18 -53 61 -41
97 -41 144 3 l37 34 -19 41 c-10 23 -21 44 -24 45 -3 2 -24 -11 -45 -30z"/>
<path d="M2507 333 c-16 -8 -49 -15 -74 -15 l-44 0 24 -31 c19 -25 33 -33 64
-35 49 -4 65 13 61 61 l-3 35 -28 -15z"/>
<path d="M2968 316 c-15 -13 -37 -31 -49 -40 -19 -13 -21 -19 -11 -40 6 -14
23 -32 37 -42 24 -15 28 -15 80 6 30 12 55 24 55 25 0 2 -14 17 -30 35 -17 18
-33 43 -36 56 -8 30 -12 29 -46 0z"/>
<path d="M2076 304 c-4 -14 -27 -48 -52 -74 l-46 -49 57 -16 c47 -14 61 -15
87 -4 26 11 68 60 68 80 0 4 -24 25 -54 47 l-54 41 -6 -25z"/>
<path d="M2564 303 c2 -15 5 -31 5 -35 2 -17 81 -8 101 12 28 28 25 39 -12 37
-18 -1 -48 2 -66 7 -32 8 -33 7 -28 -21z"/>
<path d="M2336 294 c-10 -14 -32 -32 -49 -39 l-31 -13 35 -21 c40 -25 82 -27
103 -5 9 8 16 17 16 20 0 6 -49 84 -53 84 -1 0 -10 -12 -21 -26z"/>
<path d="M2703 281 c-21 -36 -21 -41 -7 -55 24 -24 63 -24 106 2 l26 15 -36
25 c-21 13 -41 31 -45 38 -12 22 -20 17 -44 -25z"/>
<path d="M2566 202 c1 -21 3 -41 4 -47 0 -5 16 8 35 29 19 22 34 40 33 41 -2
1 -19 5 -38 8 -35 5 -36 5 -34 -31z"/>
<path d="M2820 210 c-25 -16 -45 -34 -44 -40 1 -5 2 -14 3 -20 1 -13 51 -13
106 1 l45 11 -25 30 c-14 16 -25 34 -25 39 0 14 -11 10 -60 -21z"/>
<path d="M2210 220 c0 -5 -13 -25 -30 -43 -16 -19 -30 -37 -30 -40 0 -2 22 -7
49 -11 56 -7 95 4 110 33 9 17 5 22 -39 45 -55 29 -60 30 -60 16z"/>
<path d="M2492 222 c-23 -7 -23 -7 12 -41 l36 -35 0 42 c0 44 -4 46 -48 34z"/>
<path d="M2655 206 c-6 -8 -21 -28 -34 -46 l-23 -31 38 16 c22 9 45 19 52 22
17 7 15 17 -6 36 -15 13 -19 14 -27 3z"/>
<path d="M2406 191 c-16 -18 -15 -20 46 -40 l62 -21 -39 40 c-21 22 -42 40
-45 40 -4 0 -15 -9 -24 -19z"/>
<path d="M2326 135 c-16 -25 -16 -25 11 -25 16 0 58 -3 96 -6 37 -4 67 -4 67
-1 0 4 -141 57 -153 57 -3 0 -12 -11 -21 -25z"/>
<path d="M2675 133 l-50 -24 65 6 c36 4 66 8 68 9 6 7 -11 36 -22 35 -6 0 -33
-12 -61 -26z"/>
</g>
</svg>
