<svg width="459" height="298" viewBox="0 0 459 298" fill="none" xmlns="http://www.w3.org/2000/svg">
<path d="M0 28H459M0 90H459M0 150H459M0 211H459M0 266H459" stroke="#9D3437"/>
<path d="M253 298L253 -9.29832e-06M300.933 298L300.933 -9.29832e-06M347.319 298L347.319 -9.29832e-06M394.479 298V-9.29832e-06M437 298V-9.29832e-06" stroke="#9D3437"/>
<path d="M24 298L24 -9.29832e-06M71.9328 298L71.9328 -9.29832e-06M118.319 298L118.319 -9.29832e-06M165.479 298L165.479 -9.29832e-06M208 298L208 -9.29832e-06" stroke="#9D3437"/>
</svg>
