<svg width="1024" height="293" viewBox="0 0 1024 293" fill="none" xmlns="http://www.w3.org/2000/svg">
<g clip-path="url(#clip0)">
<path fill-rule="evenodd" clip-rule="evenodd" d="M129.548 8.52546C118.39 8.8216 107.161 11.1544 96.4877 15.0036C55.1494 32.2486 26.4051 69.8921 13.396 115.059C11.2066 123.542 9.42841 132.024 8.47124 140.782C8.47124 141.062 7.78444 149.686 9.01661 147.359C10.2488 145.312 10.7968 142.296 11.4789 139.964C17.772 118.752 25.4463 99.4465 37.2179 81.1069C65.4149 39.6363 110.718 12.9425 158.625 27.7285C167.525 30.7375 175.459 35.1228 183.397 40.3211C184.899 41.4158 195.986 50.1758 193.527 42.2382C191.475 35.9504 186.274 30.598 181.753 26.3568C166.529 13.1825 148.144 8.03171 129.548 8.52546V8.52546ZM479.176 50.0301C472.745 50.0301 467.82 52.2263 464.394 56.7478C460.835 61.1212 459.196 67.6975 459.196 76.3227V138.741C451.253 129.983 443.047 123.677 434.697 119.43C429.356 116.828 423.334 114.923 416.485 113.96C412.519 113.415 408.407 113.142 403.901 113.142C382.959 113.142 365.846 120.523 352.985 135.303C340.113 150.089 333.683 170.624 333.683 197.044C333.683 209.503 335.329 221.129 338.475 231.806C341.765 242.483 346.551 251.788 352.844 259.726C359.148 267.669 366.667 273.694 375.286 278.078C383.912 282.309 393.215 284.507 403.347 284.507C407.869 284.507 412.249 284.087 416.485 283.267C419.225 282.86 421.824 282.178 424.426 281.358C430.857 279.169 436.888 276.026 442.357 272.054C447.978 267.94 453.448 262.604 459.196 256.173V260.271C459.196 268.082 461.116 273.969 464.807 278.21C468.498 282.309 473.433 284.507 479.176 284.507C484.787 284.507 489.717 282.454 493.413 278.483C497.11 274.374 498.883 268.357 498.883 260.271V74.1247C498.883 66.3245 497.245 60.3032 493.818 56.1942C490.269 52.0905 485.337 50.0301 479.176 50.0301V50.0301ZM995.732 50.0301C989.301 50.0301 984.374 52.2263 980.958 56.7478C977.531 61.1212 975.752 67.6975 975.752 76.3227V138.741C967.814 129.983 959.6 123.677 951.261 119.43C946.052 116.828 939.898 114.923 933.049 113.96C929.078 113.415 924.978 113.142 920.457 113.142C899.52 113.142 882.544 120.523 869.541 135.303C856.674 150.089 850.238 170.624 850.238 197.044C850.238 209.503 851.879 221.129 855.163 231.806C858.447 242.483 863.102 251.788 869.4 259.726C875.698 267.669 883.225 273.694 891.85 278.078C900.47 282.309 909.784 284.507 919.911 284.507C924.56 284.507 928.94 284.087 933.049 283.267C935.789 282.86 938.38 282.178 940.982 281.358C947.423 279.169 953.439 276.026 958.912 272.054C964.528 267.94 970.141 262.604 975.752 256.173V260.271C975.752 268.082 977.666 273.969 981.362 278.21C985.196 282.309 989.983 284.507 995.732 284.507C1001.62 284.507 1006.4 282.454 1010.11 278.483C1013.81 274.374 1015.72 268.357 1015.72 260.271V74.1247C1015.72 66.3245 1013.94 60.3032 1010.52 56.1942C1006.96 52.0905 1002.17 50.0301 995.732 50.0301V50.0301ZM118.765 61.4329C113.163 61.2861 107.444 62.4955 102.098 65.2338C84.9907 73.8537 78.1401 94.7952 86.9028 111.903C95.5227 129.016 116.459 135.864 133.572 127.106C150.679 118.481 157.524 97.5398 148.767 80.4375C142.841 68.6689 131.089 61.7562 118.765 61.4329V61.4329ZM595.658 112.589C583.474 112.726 572.387 114.781 562.26 118.604C551.858 122.718 543.102 128.607 535.984 136.138C528.86 143.801 523.386 152.973 519.689 163.645C515.993 174.327 514.079 185.961 514.079 198.415C514.079 224.968 521.746 245.767 536.802 261.23C551.032 275.884 570.613 283.543 595.658 284.358C597.16 284.501 598.53 284.507 600.038 284.507C611.947 284.507 622.349 282.996 631.519 279.855C640.689 276.698 648.216 272.871 654.234 268.212C660.4 263.426 664.779 258.496 667.793 253.43C670.808 248.369 672.305 243.856 672.305 240.16C672.305 235.919 670.941 232.494 668.339 230.162C665.61 227.84 662.042 226.6 657.795 226.6C653.697 226.6 650.686 227.567 648.491 229.344C643.298 234.272 638.91 238.241 635.626 241.118C632.342 243.858 628.781 246.589 624.81 249.191C620.838 251.65 616.877 253.575 612.63 254.669C608.527 255.896 603.867 256.446 598.806 256.446C597.706 256.446 596.615 256.443 595.658 256.305C589.365 255.893 583.477 254.116 578.141 250.827C571.98 247.136 566.912 241.667 563.226 234.549C559.387 227.156 557.467 218.668 557.335 209.091H640.005C650.957 209.091 659.58 207.448 665.736 204.439C671.765 201.155 674.776 194.305 674.776 183.765C674.776 172.269 671.894 161.046 666.009 149.962C660.123 139.01 651.232 129.983 639.46 122.992C627.683 116.017 613.445 112.589 597.03 112.589H595.658V112.589ZM764.701 112.589C752.517 112.726 741.292 114.781 731.302 118.604C720.895 122.718 712.138 128.607 704.877 136.138C697.897 143.801 692.431 152.973 688.74 163.645C685.038 174.327 683.121 185.961 683.121 198.415C683.121 224.968 690.648 245.767 705.704 261.23C719.934 275.884 739.65 283.543 764.701 284.358C766.076 284.501 767.565 284.507 769.072 284.507C780.849 284.507 791.389 282.996 800.554 279.855C809.723 276.698 817.253 272.871 823.277 268.212C829.305 263.426 833.813 258.496 836.828 253.43C839.837 248.369 841.348 243.856 841.347 240.16C841.347 235.919 839.972 232.494 837.233 230.162C834.636 227.84 831.081 226.6 826.697 226.6C822.726 226.6 819.715 227.567 817.526 229.344C812.184 234.272 807.952 238.241 804.668 241.118C801.384 243.858 797.689 246.589 793.712 249.191C789.888 251.65 785.771 253.575 781.673 254.669C777.421 255.896 772.915 256.446 767.849 256.446C766.749 256.446 765.658 256.443 764.701 256.305C758.402 255.893 752.511 254.116 747.175 250.827C740.877 247.136 735.949 241.667 732.12 234.549C728.424 227.156 726.501 218.668 726.369 209.091H808.899C819.989 209.091 828.615 207.448 834.638 204.439C840.799 201.155 843.802 194.305 843.802 183.765C843.802 172.269 840.802 161.046 834.911 149.962C829.025 139.01 820.263 129.983 808.354 122.992C796.577 116.017 782.492 112.589 765.924 112.589H764.701V112.589ZM189.834 112.869C183.673 112.869 178.878 114.919 175.456 118.885C171.897 122.719 170.119 128.745 170.119 136.815V258.768C170.119 266.975 172.035 273.413 176.002 277.797C179.973 282.308 184.896 284.507 191.057 284.507C197.355 284.507 202.416 282.309 206.393 278.078C210.359 273.694 212.416 267.387 212.416 258.768V206.075C212.416 188.687 213.372 177.058 215.424 170.759C218.296 162.827 222.96 156.673 229.116 152.151C235.276 147.767 242.119 145.442 249.649 145.442C261.135 145.442 268.938 149.14 272.777 156.522C276.606 163.921 278.528 174.586 278.528 188.558V258.768C278.528 266.975 280.44 273.413 284.411 277.797C288.377 282.308 293.446 284.507 299.739 284.507C305.894 284.507 310.96 282.308 314.794 277.929C318.628 273.693 320.677 267.25 320.677 258.768V180.344C320.677 171.042 320.271 163.367 319.446 157.481C318.626 151.458 316.853 145.858 313.976 140.649C309.597 131.754 303.164 124.907 294.401 120.116C285.638 115.325 275.653 112.869 264.564 112.869C253.062 112.869 242.935 115.19 234.04 119.711C225.278 124.359 217.209 131.48 209.673 141.327V136.138C209.673 131.209 208.855 126.969 207.079 123.405C205.296 119.851 202.833 117.246 199.824 115.464C196.804 113.682 193.525 112.869 189.834 112.869V112.869ZM595.526 142.021H595.658C606.599 142.021 615.501 145.579 622.207 152.697C629.055 159.809 632.884 170.626 633.973 185.137H557.335C558.842 170.906 562.949 160.087 569.655 152.837C576.36 145.582 584.981 142.021 595.526 142.021H595.526ZM764.56 142.021H764.701C775.647 142.021 784.536 145.579 791.241 152.697C797.952 159.809 801.921 170.626 802.884 185.137H726.369C727.739 170.906 731.846 160.087 738.689 152.837C745.4 145.582 754.021 142.021 764.56 142.021V142.021ZM415.948 144.483H416.485C423.741 144.483 430.45 146.674 436.473 150.92C442.766 155.161 447.705 161.321 451.396 169.396C454.96 177.471 456.874 187.188 456.874 198.415C456.874 210.457 454.96 220.447 451.396 228.385C447.705 236.323 442.769 242.206 436.614 246.034C430.585 249.868 423.741 251.794 416.485 251.794H416.353C408.966 251.794 402.254 249.742 396.093 245.77C389.805 241.666 385.01 235.645 381.451 227.707C377.892 219.632 376.113 209.912 376.113 198.415C376.113 187.601 377.762 178.016 381.046 169.941C384.467 161.734 389.119 155.431 395.275 151.052C401.298 146.531 408.281 144.483 415.948 144.483H415.948ZM932.636 144.483H933.049C940.305 144.483 947.009 146.674 953.17 150.92C959.33 155.161 964.261 161.321 967.952 169.396C971.648 177.471 973.43 187.188 973.43 198.415C973.43 210.457 971.648 220.447 967.952 228.385C964.261 236.323 959.325 242.206 953.302 246.034C947.141 249.868 940.442 251.794 933.049 251.794H932.917C925.53 251.794 918.812 249.742 912.657 245.77C906.501 241.666 901.574 235.645 898.015 227.707C894.456 219.632 892.677 209.912 892.677 198.415C892.677 187.601 894.307 178.022 897.734 169.941C901.018 161.734 905.81 155.431 911.839 151.052C918.005 146.531 924.836 144.483 932.637 144.483H932.636ZM142.198 145.855C131.241 152.418 118.379 156.117 104.693 156.117C101.821 156.117 99.0836 155.985 96.2068 155.705V256.446C96.2068 265.753 98.3971 272.733 102.644 277.392C107.022 282.178 112.365 284.507 119.07 284.507C125.908 284.507 131.531 282.178 135.761 277.525C140.013 272.871 142.198 265.891 142.198 256.446V145.855V145.855Z" fill="#C2E2E0"/>
</g>
<defs>
<clipPath id="clip0">
<rect width="1024" height="293" fill="white"/>
</clipPath>
</defs>
</svg>
