<svg width="248" height="165" viewBox="0 0 248 165" fill="none" xmlns="http://www.w3.org/2000/svg">
<path d="M229 20.9999C273 62 229 79 186 110C143 141 121 183 57 156C-7.00001 129 -33.7394 80.9238 73 33C122 11 157 -20 229 20.9999Z" fill="#FFA188"/>
<path d="M87.5 115.984C82.5313 115.984 78.2188 114.922 74.5625 112.797C70.9063 110.641 68.0782 107.687 66.0782 103.937C64.0782 100.156 63.0782 95.8281 63.0782 90.9531V88.4219C63.0782 83.5781 64.0782 79.2656 66.0782 75.4844C68.0782 71.7031 70.9063 68.7344 74.5625 66.5781C78.2188 64.4219 82.5 63.3437 87.4063 63.3437C92.4688 63.3437 96.6563 64.6406 99.9688 67.2344C103.281 69.7969 106.188 73.2812 108.688 77.6875C111.125 73.2812 114 69.7969 117.313 67.2344C120.656 64.6406 124.875 63.3437 129.969 63.3437C134.875 63.3437 139.156 64.4219 142.813 66.5781C146.5 68.7344 149.344 71.7031 151.344 75.4844C153.375 79.2656 154.391 83.5781 154.391 88.4219V90.9531C154.391 95.8281 153.375 100.156 151.344 103.937C149.344 107.687 146.5 110.641 142.813 112.797C139.156 114.922 134.844 115.984 129.875 115.984C124.813 115.984 120.625 114.672 117.313 112.047C114 109.391 111.125 105.797 108.688 101.266C106.188 105.828 103.281 109.422 99.9688 112.047C96.6563 114.672 92.5 115.984 87.5 115.984ZM87.3594 105.484C89.3282 105.484 91.1407 104.953 92.7969 103.891C94.4844 102.797 95.9532 101.422 97.2032 99.7656C98.4844 98.1094 99.5157 96.4219 100.297 94.7031C101.109 92.9531 101.625 91.4062 101.844 90.0625V88.6562C101.563 87.375 101.031 85.8906 100.25 84.2031C99.4688 82.5156 98.4375 80.8906 97.1563 79.3281C95.9063 77.7656 94.4532 76.4687 92.7969 75.4375C91.1407 74.4062 89.2969 73.8906 87.2657 73.8906C83.8594 73.8906 81.25 75.2344 79.4375 77.9219C77.625 80.6094 76.7188 84.1094 76.7188 88.4219V90.9531C76.7188 95.3594 77.6407 98.8906 79.4844 101.547C81.3282 104.172 83.9532 105.484 87.3594 105.484ZM130.016 105.484C133.359 105.484 135.969 104.172 137.844 101.547C139.75 98.8906 140.703 95.3594 140.703 90.9531V88.4219C140.703 84.1094 139.781 80.6094 137.938 77.9219C136.125 75.2344 133.516 73.8906 130.109 73.8906C128.078 73.8906 126.219 74.4062 124.531 75.4375C122.844 76.4687 121.359 77.7812 120.078 79.375C118.828 80.9375 117.813 82.5625 117.031 84.25C116.281 85.9062 115.797 87.375 115.578 88.6562V90.0625C115.766 91.4062 116.25 92.9531 117.031 94.7031C117.813 96.4219 118.828 98.1094 120.078 99.7656C121.359 101.422 122.828 102.797 124.484 103.891C126.172 104.953 128.016 105.484 130.016 105.484Z" fill="black"/>
</svg>
