<svg width="231" height="208" viewBox="0 0 231 208" fill="none" xmlns="http://www.w3.org/2000/svg">
<path d="M192 45C223 74 256 144 202 173C148 202 145 221 81 194C16.9999 167 -46.5654 93.1305 51 30C136 -25 127 5.99998 192 45Z" fill="#B7C0AF"/>
<path d="M98.8773 143.813C96.8402 143.491 94.7365 142.889 92.5662 142.008L94.8793 131.886C95.5242 132.209 96.2405 132.481 97.0284 132.7C97.8163 132.92 98.4571 133.069 98.951 133.147C100.896 133.454 102.487 132.994 103.725 131.766C104.964 130.539 105.783 128.659 106.183 126.128L115.279 68.6243C116.168 63.0067 118.472 58.9417 122.192 56.4295C125.916 53.8864 130.71 53.0787 136.575 54.0064C138.859 54.3677 141.277 55.0824 143.829 56.1505L141.097 65.9218C139.638 65.343 138.245 64.9486 136.918 64.7387C134.603 64.3725 132.744 64.7269 131.34 65.802C129.971 66.8512 129.109 68.5023 128.753 70.7556L119.656 128.259C118.724 134.155 116.447 138.446 112.827 141.132C109.207 143.818 104.557 144.712 98.8773 143.813Z" fill="black"/>
</svg>
