<svg width="602" height="102" viewBox="0 0 602 102" fill="none" xmlns="http://www.w3.org/2000/svg">
<path fill-rule="evenodd" clip-rule="evenodd" d="M87 1.00001C84.3 1.00001 81.6 1.00001 78.9 1.00001C78.6 1.00001 78.3 0.899994 78.2 1.29999C78.1 1.69999 78 1.99999 77.8 2.29999C77.5 3.09999 77.1 3.90002 76.7 4.70002C76.4 5.60002 76.1 6.5 75.8 7.4C75.7 7.8 75.5 8.30002 75.4 8.70002C75.2 9.30002 74.9 9.8 74.7 10.4C74.6 10.5 74.6 10.6 74.6 10.8C74.4 11.2 74.1 11.7 74 12.1C73.8 12.6 73.7 13.2 73.5 13.8C73.2 14.6 72.7 15.4 72.4 16.2C72.1 17.1 71.8 18 71.5 18.9C71.4 19.3 71.2 19.8 71.1 20.2C70.8 21 70.4 21.8 70 22.6C69.8 23.1 69.7 23.6 69.5 24.1C69.1 25.1 68.7 26.1 68.3 27.1C68.1 27.5 68 28 67.8 28.4C67.6 28.9 67.3 29.4 67.1 30C66.9 30.5 66.8 31 66.6 31.5C66.5 31.9 66.3 32.3 66.1 32.8C65.9 33.3 65.7 33.7 65.5 34.2C65.3 34.7 65.2 35.2 65 35.6C64.8 36.1 64.5 36.6 64.3 37.1C64.1 37.6 64 38.1 63.8 38.6C63.7 39 63.5 39.4 63.4 39.8C63.2 40.4 62.9 41 62.7 41.6C62.5 42 62.4 42.5 62.2 42.9C62 43.4 61.7 43.9 61.5 44.4C61.3 44.9 61.2 45.4 61 46C60.9 46.4 60.7 46.9 60.5 47.3C60.3 47.8 60.1 48.3 59.9 48.7C59.7 49.2 59.6 49.8 59.4 50.3C59.1 51.1 58.7 51.9 58.3 52.7C58 53.5 57.7 54.3 57.4 55.2C57.3 55.2 57.3 55.2 57.2 55.2C57 54.7 56.8 54.1 56.6 53.6C56.4 53.1 56.3 52.7 56.1 52.2C55.9 51.7 55.6 51.2 55.4 50.7C55.2 50.2 55.1 49.7 54.9 49.2C54.7 48.6 54.4 48 54.2 47.3C54 46.9 53.9 46.4 53.7 46C53.5 45.5 53.2 45 53 44.5C52.8 44 52.7 43.5 52.5 43C52.3 42.4 52 41.8 51.8 41.2C51.6 40.8 51.5 40.3 51.3 39.9C51 39.1 50.6 38.3 50.2 37.5C49.8 36.5 49.4 35.5 49 34.4C48.6 33.4 48.2 32.3 47.8 31.3C47.5 30.4 47.2 29.5 46.9 28.6C46.9 28.5 46.8 28.4 46.8 28.4C46.6 28 46.3 27.6 46.2 27.1C46 26.6 45.9 26 45.7 25.4C45.6 25.1 45.4 24.7 45.3 24.4C45.1 23.9 44.8 23.4 44.6 22.8C44.4 22.3 44.3 21.8 44.1 21.3C43.9 20.7 43.6 20.1 43.4 19.5C43.2 19.1 43.1 18.6 42.9 18.2C42.7 17.7 42.4 17.2 42.2 16.7C42 16.2 41.9 15.7 41.7 15.2C41.6 14.8 41.4 14.4 41.2 13.9C41 13.4 40.8 13 40.6 12.5C40.4 12 40.3 11.4 40.1 10.9C39.8 10 39.4 9.10002 39 8.20002C38.8 7.80002 38.7 7.3 38.5 6.9C38.3 6.3 38 5.70001 37.8 5.10001C37.6 4.70001 37.5 4.19999 37.3 3.79999C37.1 3.29999 36.8 2.80002 36.6 2.20002C36.5 1.60002 36.2 1.29999 35.5 1.29999C24.2 1.29999 12.8 1.29999 1.49999 1.29999H0.799988V1.9C0.799988 34.4 0.799988 66.9 0.799988 99.4C0.799988 100.2 0.799989 100.3 1.69999 100.3C9.59999 100.3 17.5 100.3 25.4 100.3C26.3 100.3 26.3 100.3 26.3 99.3C26.3 90.9 26.3 82.5 26.3 74.1C26.3 61.7 26.3 49.2 26.3 36.8C26.3 36.5 26.3 36.2 26.4 35.8C26.5 35.8 26.5 35.8 26.6 35.8C26.7 36.1 26.7 36.3 26.8 36.6C27 37.1 27.3 37.7 27.5 38.2C27.7 38.7 27.8 39.2 28 39.7C28.2 40.3 28.5 40.9 28.7 41.5C28.9 41.9 29 42.4 29.2 42.8C29.4 43.4 29.7 44 29.9 44.6C30.1 45.1 30.2 45.5 30.4 46C30.6 46.5 30.9 46.9 31 47.4C31.2 47.9 31.3 48.5 31.5 49C31.6 49.4 31.7 49.7 31.9 50C32.1 50.5 32.4 51 32.6 51.5C32.8 52 32.9 52.5 33.1 53C33.4 53.8 33.8 54.6 34.2 55.3C34.6 56.3 35 57.3 35.4 58.4C35.7 59.3 36 60.2 36.3 61C36.4 61.4 36.6 61.9 36.8 62.3C37 62.9 37.3 63.5 37.5 64.1C37.5 64.2 37.6 64.3 37.6 64.5C37.8 65 38 65.4 38.2 65.9C38.4 66.4 38.5 67 38.7 67.5C39 68.3 39.4 69.1 39.8 69.8C40.1 70.4 40.3 71.1 40.6 71.8C40.9 72.7 41.2 73.6 41.5 74.5C41.6 74.9 41.8 75.3 42 75.8C42.4 76.7 42.7 77.6 43.1 78.5C43.3 79 43.4 79.4 43.6 79.9C43.8 80.4 44.1 80.9 44.3 81.4C44.4 81.7 44.6 82.1 44.7 82.4C44.9 82.9 45 83.4 45.2 83.9C45.4 84.4 45.7 85 45.9 85.5C46.1 86 46.2 86.5 46.4 87C46.6 87.6 46.9 88.2 47.1 88.9C47.3 89.3 47.4 89.8 47.6 90.2C47.8 90.8 48.1 91.4 48.3 92C48.5 92.4 48.6 92.9 48.8 93.3C49 93.8 49.3 94.3 49.5 94.8C49.7 95.2 49.8 95.5 49.9 95.9C50.1 96.4 50.2 96.9 50.4 97.3C50.6 97.9 51 98.5 51.1 99.1C51.3 99.8 51.8 100.4 52.6 100.4C55.8 100.4 59 100.4 62.2 100.4C62.4 100.4 62.7 100.2 62.9 100.1C63.4 99.9 63.2 99.4 63.4 99C63.7 98.2 64.2 97.4 64.5 96.6C64.8 95.7 65.1 94.8 65.4 93.9C65.5 93.5 65.7 93 65.9 92.6C66.1 92.2 66.3 91.7 66.5 91.3C66.7 90.8 66.8 90.2 67 89.6C67.1 89.2 67.2 88.9 67.4 88.6C67.6 88.1 67.9 87.5 68.1 87C68.3 86.5 68.4 86 68.6 85.6C68.8 85.1 69.1 84.6 69.3 84.1C69.5 83.6 69.6 83.1 69.8 82.6C69.9 82.2 70.1 81.7 70.3 81.3C70.5 80.9 70.7 80.5 70.9 80C71.1 79.5 71.2 79 71.4 78.5C71.6 77.8 71.9 77.2 72.2 76.5C72.2 76.4 72.3 76.3 72.3 76.2C72.5 75.7 72.8 75.3 72.9 74.8C73.1 74.3 73.2 73.7 73.4 73.2C73.8 72.3 74.1 71.4 74.5 70.4C74.7 70 74.8 69.5 75 69C75.2 68.5 75.5 67.9 75.7 67.4C75.9 66.9 76 66.4 76.2 65.9C76.4 65.3 76.7 64.7 76.9 64.1C77.1 63.7 77.2 63.2 77.4 62.8C77.7 62 78.1 61.2 78.5 60.4C78.8 59.5 79.1 58.6 79.4 57.7C79.5 57.3 79.7 56.9 79.9 56.4C80.1 55.9 80.3 55.4 80.5 54.9C80.7 54.4 80.8 53.9 81 53.4C81.4 52.5 81.7 51.6 82.1 50.7C82.3 50.3 82.4 49.8 82.6 49.4C82.8 48.8 83.1 48.3 83.3 47.7C83.5 47.2 83.6 46.7 83.8 46.3C84 45.8 84.3 45.3 84.5 44.8C84.7 44.3 84.8 43.8 85 43.3C85.4 42.3 85.8 41.3 86.2 40.3C86.2 40.2 86.3 40.1 86.3 40.1C86.5 39.6 86.8 39.2 86.9 38.7C87.1 38.2 87.2 37.6 87.4 37.1C87.5 36.8 87.7 36.4 87.9 36.1C88 36.1 88 36.1 88.1 36.1C88.1 36.4 88.2 36.8 88.2 37.1C88.2 57.8 88.2 78.6 88.2 99.3C88.2 100.3 88.4 100.5 89.5 100.5C97.3 100.5 105.1 100.5 112.8 100.5C113.8 100.5 113.8 100.5 113.8 99.5V2.29999V1.00001H113H87Z" fill="#C2E2E0"/>
<path fill-rule="evenodd" clip-rule="evenodd" d="M189 51.4C188.9 50.7 189 49.9 188.9 49.2C188.7 48.3 188.5 47.4 188.2 46.5C188 45.8 187.9 45.1 187.8 44.4C187.8 44.4 187.8 44.3 187.7 44.3C187.5 43.8 187.2 43.3 187 42.7C186.8 42.2 186.7 41.7 186.5 41.3C186.4 41 186.1 40.7 185.9 40.4C185.6 39.9 185.3 39.4 185 39C184.6 38.4 184.3 37.8 183.9 37.3C183.3 36.5 182.5 35.8 181.9 35.1C180.9 34 179.7 33 178.4 32.2C177.9 31.9 177.3 31.6 176.8 31.3C176.1 30.9 175.4 30.5 174.6 30.2C174.3 30 173.9 29.9 173.6 29.8C173.1 29.6 172.7 29.3 172.2 29.1C171.6 28.9 171 28.8 170.5 28.6C169.8 28.4 169.2 28.1 168.5 27.9C167.3 27.6 166 27.3 164.8 27.1C163.7 26.9 162.6 26.7 161.6 26.7C158.9 26.6 156.1 26.6 153.4 26.6C152 26.6 150.7 26.5 149.3 26.9C148.2 27.3 147 27.2 145.8 27.4C144.9 27.5 144 27.7 143.1 27.8H143C142.2 28 141.5 28.3 140.7 28.5C140.1 28.7 139.4 28.8 138.8 29C138.4 29.1 137.9 29.3 137.5 29.5C137.1 29.7 136.6 30 136.2 30.1C135.4 30.4 134.5 30.6 133.6 31C132.8 31.3 132 31.8 131.3 32.2C131 32.4 130.7 32.5 130.4 32.7C129.9 33 129.4 33.4 128.9 33.7C128.4 34 127.7 34.3 127.2 34.6C126.6 35 126 35.6 125.4 36C124.7 36.6 123.9 37.1 123.1 37.7C123.2 37.7 123.2 37.8 123.3 37.8C123.4 38.1 123.5 38.4 123.7 38.7C124 39.3 124.4 39.9 124.8 40.6C125.1 41.2 125.4 41.8 125.7 42.3C126 42.9 126.4 43.5 126.8 44.1C127.1 44.7 127.4 45.4 127.8 46C128.2 46.8 128.7 47.6 129.2 48.3C129.6 49 130 49.8 130.4 50.5C130.8 51.3 131.3 52.1 131.6 52.9C131.8 53.4 132.2 53.2 132.4 53.1C133 52.7 133.5 52.1 134.1 51.7C135.3 50.9 136.5 50.3 137.7 49.6C138.9 49 140.1 48.3 141.3 47.8C142 47.5 142.8 47.2 143.6 47C144.6 46.7 145.5 46.4 146.5 46.2C147.5 46 148.5 45.8 149.5 45.8C150.8 45.7 152.1 45.8 153.4 45.8C153.9 45.8 154.3 45.8 154.8 45.9C155.8 46.1 156.7 46.4 157.7 46.6C158.6 46.7 159.3 47.1 160.1 47.4C161.1 47.8 162.1 48.4 162.9 49.1C163.6 49.7 164.2 50.4 164.8 51.2C165.1 51.6 165.3 52.1 165.6 52.6C166 53.2 166.3 54 166.3 54.7C166.4 57 166.3 59.3 166.3 61.6C166.3 62 166.3 62.3 166.3 62.6C166.3 62.7 166 62.8 165.9 62.8C165.7 62.6 165.6 62.4 165.4 62.3C164.9 61.8 164.5 61.4 164 61C163.3 60.5 162.6 60.1 161.9 59.6C161.3 59.2 160.8 58.8 160.2 58.6C159.5 58.3 158.8 58 158.1 57.7C157.3 57.3 156.5 56.9 155.6 56.6C154.8 56.4 154 56.3 153.2 56.1C153.1 56.1 153.1 56.1 153 56.1C152.2 55.9 151.5 55.6 150.7 55.4C149.7 55.2 148.6 55.2 147.6 55.1C144.6 54.8 141.6 55 138.7 55.4C138.1 55.5 137.5 55.6 136.8 55.8C136.7 55.8 136.6 55.9 136.5 55.9C135.8 56.1 135.2 56.3 134.6 56.5C134.1 56.7 133.5 56.8 133 57C132.1 57.4 131.2 58 130.3 58.5C129.7 58.8 129.1 59 128.6 59.4C127.8 60 127 60.6 126.3 61.3C125.6 62 124.8 62.8 124.2 63.6C123.7 64.2 123.3 64.9 122.9 65.5C122.4 66.3 121.9 67.2 121.4 68.1C121.2 68.5 121.1 68.9 121 69.2C120.8 69.8 120.7 70.4 120.5 71C120.3 71.7 120 72.5 119.8 73.2C119.6 74.2 119.5 75.2 119.4 76.3C119.3 77.2 119.3 78.1 119.4 79C119.5 80 119.6 81.1 119.7 82.1C119.8 83 120 83.8 120.1 84.7C120.2 85.2 120.3 85.6 120.5 86.1C120.7 86.6 121 87.1 121.2 87.6C121.4 88 121.5 88.5 121.7 88.8C122 89.5 122.4 90.1 122.8 90.7C123.3 91.5 123.9 92.3 124.5 93.1C125.3 94 126.2 94.9 127.1 95.7C127.8 96.3 128.5 96.9 129.3 97.4C129.8 97.8 130.4 98 131 98.3C131.7 98.7 132.4 99.1 133.1 99.4C133.5 99.6 134 99.8 134.5 100C135 100.2 135.5 100.4 136 100.6C136.7 100.8 137.4 100.8 138 101.1C139.1 101.6 140.2 101.6 141.3 101.7C143.9 101.8 146.5 102.1 149 101.5C150.1 101.3 151.2 101.2 152.3 101C152.4 101 152.4 101 152.5 100.9C153.1 100.7 153.7 100.4 154.3 100.2C154.9 100 155.5 99.9 156 99.7C156.9 99.4 157.7 98.9 158.6 98.6C158.9 98.5 159.3 98.3 159.6 98.1C160.3 97.6 161 97.1 161.8 96.6C162.5 96.1 163.2 95.8 163.9 95.3C164.5 94.8 165 94.3 165.5 93.8C165.6 93.7 165.7 93.6 165.8 93.5C165.9 93.7 166 93.8 166 94C166 95.7 166 97.3 166 99C166 99.9 166.2 100.1 167.1 100.1C174.1 100.1 181 100.1 188 100.1C188.8 100.1 189.1 99.8 189.1 99C189.1 91.1 189.2 83.1 189.1 75.2C189.2 67.2 189.7 59.3 189 51.4ZM165.2 82.8C164.5 83.5 163.6 84 162.7 84.5C161.8 84.9 161 85.4 160 85.7C158.7 86.1 157.3 86.3 156 86.5C154.8 86.7 153.7 86.8 152.5 86.7C151.5 86.7 150.4 86.6 149.5 86.3C148.2 85.9 146.9 85.4 145.8 84.8C144.8 84.2 143.9 83.4 143.3 82.4C142.9 81.7 142.6 80.9 142.4 80.1C142.2 79.4 142 78.7 142.2 78C142.3 77.2 142.7 76.5 142.9 75.7C143.2 74.5 144.1 73.7 145 72.9C145.5 72.5 146.1 72.2 146.6 71.9C147 71.7 147.4 71.5 147.8 71.2L147.9 71.1C148.6 70.9 149.2 70.8 149.9 70.6C152 70 154.1 70.1 156.2 70.3C157.2 70.4 158.3 70.4 159.3 70.9C159.8 71.2 160.5 71.2 161 71.4C161.4 71.6 161.9 71.8 162.3 72C162.6 72.2 163 72.4 163.3 72.5C164.4 73.1 165.4 73.8 166.1 74.9C166.2 75 166.2 75.2 166.2 75.4C166.2 76.4 166.2 77.3 166.2 78.3C166.2 79.1 166.1 79.8 166.2 80.6C166.3 81.6 165.8 82.2 165.2 82.8Z" fill="#C2E2E0"/>
<path fill-rule="evenodd" clip-rule="evenodd" d="M410.5 51.4C410.4 50.7 410.5 49.9 410.4 49.2C410.2 48.3 410 47.4 409.7 46.5C409.5 45.8 409.4 45.1 409.3 44.4C409.3 44.4 409.3 44.3 409.2 44.3C409 43.8 408.7 43.3 408.5 42.7C408.3 42.2 408.2 41.7 408 41.3C407.9 41 407.6 40.7 407.4 40.4C407.1 39.9 406.8 39.4 406.5 39C406.1 38.4 405.8 37.8 405.4 37.3C404.8 36.5 404 35.8 403.4 35.1C402.4 34 401.2 33 399.9 32.2C399.4 31.9 398.8 31.6 398.3 31.3C397.6 30.9 396.9 30.5 396.1 30.2C395.8 30 395.4 29.9 395.1 29.8C394.6 29.6 394.2 29.3 393.7 29.1C393.1 28.9 392.5 28.8 392 28.6C391.3 28.4 390.7 28.1 390 27.9C388.8 27.6 387.5 27.3 386.3 27.1C385.2 26.9 384.1 26.7 383.1 26.7C380.4 26.6 377.6 26.6 374.9 26.6C373.5 26.6 372.2 26.5 370.8 26.9C369.7 27.3 368.5 27.2 367.3 27.4C366.4 27.5 365.5 27.7 364.6 27.8H364.5C363.7 28 363 28.3 362.2 28.5C361.6 28.7 360.9 28.8 360.3 29C359.9 29.1 359.4 29.3 359 29.5C358.6 29.7 358.1 30 357.7 30.1C356.9 30.4 356 30.6 355.2 31C354.4 31.3 353.6 31.8 352.9 32.2C352.6 32.4 352.3 32.5 352 32.7C351.5 33 351 33.4 350.5 33.7C350 34 349.3 34.3 348.8 34.6C348.2 35 347.6 35.6 347 36C346.3 36.6 345.5 37.1 344.7 37.7C344.8 37.7 344.8 37.8 344.9 37.8C345 38.1 345.1 38.4 345.3 38.7C345.6 39.3 346 39.9 346.4 40.6C346.7 41.2 347 41.8 347.3 42.3C347.6 42.9 348 43.5 348.4 44.1C348.7 44.7 349 45.4 349.4 46C349.8 46.8 350.3 47.6 350.8 48.3C351.2 49 351.6 49.8 352 50.5C352.4 51.3 352.9 52.1 353.2 52.9C353.4 53.4 353.8 53.2 354 53.1C354.6 52.7 355.1 52.1 355.7 51.7C356.9 50.9 358.1 50.3 359.3 49.6C360.5 49 361.7 48.3 362.9 47.8C363.6 47.5 364.4 47.2 365.2 47C366.2 46.7 367.1 46.4 368.1 46.2C369.1 46 370.1 45.8 371.1 45.8C372.4 45.7 373.7 45.8 375 45.8C375.5 45.8 375.9 45.8 376.4 45.9C377.4 46.1 378.3 46.4 379.3 46.6C380.2 46.7 380.9 47.1 381.7 47.4C382.7 47.8 383.7 48.4 384.5 49.1C385.2 49.7 385.8 50.4 386.4 51.2C386.7 51.6 386.9 52.1 387.2 52.6C387.6 53.2 387.9 54 387.9 54.7C388 57 387.9 59.3 387.9 61.6C387.9 62 387.9 62.3 387.9 62.6C387.9 62.7 387.6 62.8 387.5 62.8C387.3 62.6 387.2 62.4 387 62.3C386.5 61.8 386.1 61.4 385.6 61C384.9 60.5 384.2 60.1 383.5 59.6C382.9 59.2 382.4 58.8 381.8 58.6C381.1 58.3 380.4 58 379.7 57.7C378.9 57.3 378.1 56.9 377.2 56.6C376.4 56.4 375.6 56.3 374.9 56.1C374.8 56.1 374.8 56.1 374.7 56.1C373.9 55.9 373.2 55.6 372.4 55.4C371.4 55.2 370.3 55.2 369.3 55.1C366.3 54.8 363.3 55 360.4 55.4C359.8 55.5 359.2 55.6 358.5 55.8C358.4 55.8 358.3 55.9 358.2 55.9C357.5 56.1 356.9 56.3 356.3 56.5C355.8 56.7 355.2 56.8 354.7 57C353.8 57.4 352.9 58 352 58.5C351.4 58.8 350.8 59 350.3 59.4C349.5 60 348.7 60.6 348 61.3C347.3 62 346.5 62.8 345.9 63.6C345.4 64.2 345 64.9 344.6 65.5C344.1 66.3 343.6 67.2 343.1 68.1C342.9 68.5 342.8 68.9 342.7 69.2C342.5 69.8 342.4 70.4 342.2 71C342 71.7 341.7 72.5 341.5 73.2C341.3 74.2 341.2 75.2 341.1 76.3C341 77.2 341 78.1 341.1 79C341.2 80 341.3 81.1 341.4 82.1C341.5 83 341.7 83.8 341.8 84.7C341.9 85.2 342 85.6 342.2 86.1C342.4 86.6 342.7 87.1 342.9 87.6C343.1 88 343.2 88.5 343.4 88.8C343.7 89.5 344.1 90.1 344.5 90.7C345 91.5 345.6 92.3 346.2 93.1C347 94 347.9 94.9 348.8 95.7C349.5 96.3 350.2 96.9 351 97.4C351.5 97.8 352.1 98 352.7 98.3C353.4 98.7 354.1 99.1 354.8 99.4C355.2 99.6 355.7 99.8 356.2 100C356.7 100.2 357.2 100.4 357.7 100.6C358.4 100.8 359.1 100.8 359.7 101.1C360.8 101.6 361.9 101.6 363 101.7C365.6 101.8 368.2 102.1 370.7 101.5C371.8 101.3 372.9 101.2 374 101C374.1 101 374.1 101 374.2 100.9C374.8 100.7 375.4 100.4 376 100.2C376.6 100 377.2 99.9 377.7 99.7C378.6 99.4 379.4 98.9 380.3 98.6C380.6 98.5 381 98.3 381.3 98.1C382 97.6 382.7 97.1 383.5 96.6C384.2 96.1 384.9 95.8 385.6 95.3C386.2 94.8 386.7 94.3 387.2 93.8C387.3 93.7 387.4 93.6 387.5 93.5C387.6 93.7 387.7 93.8 387.7 94C387.7 95.7 387.7 97.3 387.7 99C387.7 99.9 387.9 100.1 388.8 100.1C395.8 100.1 402.7 100.1 409.7 100.1C410.5 100.1 410.8 99.8 410.8 99C410.8 91.1 410.9 83.1 410.8 75.2C410.7 67.2 411.2 59.3 410.5 51.4ZM386.8 82.8C386.1 83.5 385.2 84 384.3 84.5C383.4 84.9 382.6 85.4 381.6 85.7C380.3 86.1 378.9 86.3 377.6 86.5C376.4 86.7 375.3 86.8 374.1 86.7C373.1 86.7 372 86.6 371.1 86.3C369.8 85.9 368.5 85.4 367.4 84.8C366.4 84.2 365.5 83.4 364.9 82.4C364.5 81.7 364.2 80.9 364 80.1C363.8 79.4 363.6 78.7 363.8 78C363.9 77.2 364.3 76.5 364.5 75.7C364.8 74.5 365.7 73.7 366.6 72.9C367.1 72.5 367.7 72.2 368.2 71.9C368.6 71.7 369 71.5 369.4 71.2L369.5 71.1C370.2 70.9 370.9 70.8 371.5 70.6C373.6 70 375.7 70.1 377.8 70.3C378.8 70.4 379.9 70.4 380.9 70.9C381.4 71.2 382.1 71.2 382.6 71.4C383 71.6 383.5 71.8 383.9 72C384.2 72.2 384.6 72.4 384.9 72.5C386 73.1 387 73.8 387.7 74.9C387.8 75 387.8 75.2 387.8 75.4C387.8 76.4 387.8 77.3 387.8 78.3C387.8 79.1 387.7 79.8 387.8 80.6C387.9 81.6 387.4 82.2 386.8 82.8Z" fill="#C2E2E0"/>
<path fill-rule="evenodd" clip-rule="evenodd" d="M259.1 71.5C258.8 70.7 258.6 69.9 258.3 69.2C257.9 68.2 257.6 67.3 257 66.4C256.4 65.5 255.5 64.7 254.8 63.8C253.4 62.1 251.7 60.8 249.9 59.7C248.9 59.1 247.8 58.6 246.8 58.1C246 57.8 245.2 57.5 244.4 57.3C244 57.1 243.5 57 243 56.9C242.5 56.7 241.9 56.4 241.4 56.2C240.6 56 239.8 55.9 239 55.7C238.9 55.7 238.8 55.7 238.7 55.7C237.9 55.5 237.2 55.2 236.4 55C235.4 54.8 234.3 54.7 233.3 54.5H233.2C232.2 54.3 231.2 54 230.1 53.8C228.9 53.6 227.7 53.5 226.5 53.3H226.4C225.5 53.1 224.7 52.8 223.8 52.6C223 52.4 222.3 52.3 221.5 52.1C221.4 52.1 221.4 52.1 221.3 52C220.9 51.8 220.5 51.5 220.1 51.4C219.4 51.2 218.3 49.9 218.4 49.1C218.5 48.7 218.7 48.4 218.7 48C218.9 47 219.8 46.4 220.5 45.9C221.3 45.3 222.4 45 223.3 44.7C224.3 44.4 225.4 44.3 226.4 44.3C227.9 44.3 229.5 44.5 231 44.6C232.1 44.7 233.1 44.9 234.2 45C234.7 45.1 235.2 45.3 235.7 45.4C235.8 45.4 235.9 45.4 235.9 45.5C236.5 45.7 237.1 46 237.7 46.2C238.2 46.4 238.8 46.5 239.4 46.7C239.7 46.8 240 47 240.4 47.2C240.8 47.4 241.2 47.6 241.5 47.8C242.1 48.1 242.8 48.4 243.4 48.7C243.9 49 244.3 49.4 244.8 49.7C245.7 50.3 246.6 50.9 247.4 51.6C248.1 52.2 248.2 52.3 248.6 51.4C248.9 50.8 249.1 50.3 249.4 49.8C249.7 49.2 250.1 48.6 250.5 48C250.9 47.4 251.2 46.8 251.5 46.1C251.8 45.5 252.1 44.9 252.4 44.3C252.7 43.6 253 43 253.4 42.3C254 41.3 254.6 40.3 255.2 39.3C255.6 38.7 255.9 38 256.3 37.4C256.6 36.9 256.7 36.3 256.9 35.8C256 35.2 255.2 34.8 254.5 34.3C253.9 33.9 253.3 33.6 252.7 33.2C252.4 33 252.1 32.9 251.8 32.7C251.2 32.4 250.6 32 250 31.7C249.3 31.4 248.6 31.1 247.9 30.8C247.6 30.7 247.3 30.5 247 30.4C246.4 30.2 245.9 29.9 245.3 29.7C244.8 29.5 244.3 29.4 243.9 29.3C243.4 29.1 242.8 28.8 242.3 28.6C241.5 28.4 240.7 28.3 239.9 28.1C239.8 28.1 239.8 28.1 239.7 28.1C239 27.9 238.3 27.6 237.5 27.4C236.8 27.3 236.2 27.2 235.5 27C234.4 26.7 233.2 26.6 232 26.6C230.9 26.5 229.7 26.5 228.6 26.5C225.8 26.6 222.9 26.3 220.1 26.9C219.1 27.1 218 27.2 216.9 27.4H216.8C216.1 27.6 215.4 27.9 214.7 28.1C214.1 28.3 213.5 28.3 212.9 28.6C212.1 28.9 211.3 29.3 210.6 29.7C209.9 30 209.2 30.3 208.5 30.6C208.2 30.7 207.9 30.9 207.6 31.1C207.1 31.4 206.7 31.8 206.2 32.1C205.5 32.6 204.8 33 204.1 33.6C203.4 34.1 202.8 34.7 202.2 35.3C201.8 35.7 201.3 36.2 200.9 36.7C200.4 37.4 199.9 38.1 199.5 38.8C199 39.6 198.5 40.5 198.1 41.3C197.9 41.7 197.7 42.2 197.6 42.6C197.4 43.2 197.1 43.8 196.9 44.5C196.8 44.7 196.9 44.8 196.8 45C196.6 46 196.2 47 196.1 48C196 49.1 196 50.3 196.1 51.4C196.2 52.7 196.4 54.1 196.5 55.4C196.5 55.5 196.5 55.5 196.6 55.6C196.8 56.3 197.1 57.1 197.3 57.8C197.4 58.3 197.6 58.8 197.8 59.2C198.1 59.8 198.5 60.4 198.9 61C199.3 61.7 199.7 62.5 200.2 63.1C201 64 201.9 64.9 202.8 65.7C203.5 66.3 204.2 66.9 204.9 67.4C205.4 67.8 206.1 68 206.7 68.3C207.4 68.7 208.1 69.1 208.8 69.4C209.2 69.6 209.7 69.7 210.2 69.9C210.7 70.1 211.1 70.4 211.5 70.5C212.1 70.7 212.7 70.8 213.3 71C214.2 71.2 215.1 71.5 216.1 71.8C216.2 71.8 216.3 71.8 216.4 71.8C217.2 72 217.9 72.4 218.7 72.5C220 72.7 221.3 72.9 222.5 73.3C223.3 73.5 224.1 73.4 225 73.7C225.7 74 226.5 73.9 227.3 74.1C228.7 74.4 230.2 74.5 231.6 74.9C232.4 75.1 233.2 75.2 234 75.4C234.1 75.4 234.1 75.4 234.2 75.4C234.9 75.8 235.5 76.1 236.2 76.5C237.1 76.9 237.6 77.6 237.8 78.5C238 79.5 237.6 80.5 236.9 81.4C236.2 82.2 235.5 82.7 234.5 83C233.6 83.3 232.8 83.6 231.9 83.7C230.8 83.9 229.7 83.6 228.6 84C228.4 84.1 228 84 227.8 84C227.5 83.9 227.1 83.8 226.8 83.8C225.2 83.6 223.6 83.5 222 83.3C221.9 83.3 221.9 83.3 221.8 83.2C221 83 220.2 82.7 219.4 82.5C218.8 82.3 218.2 82.2 217.6 82C217.2 81.9 216.8 81.7 216.4 81.6C215.9 81.4 215.4 81.1 214.9 80.9C214.4 80.7 213.9 80.6 213.4 80.4C212.5 79.9 211.6 79.4 210.6 78.9C209.9 78.5 209.1 78.1 208.4 77.7C207.4 77.2 206.4 76.7 205.5 76C204.7 75.4 203.9 74.7 203.2 74.1C200 79.5 196.9 85 193.7 90.5C193.9 90.7 194.1 90.8 194.3 91C195.2 91.8 196.1 92.5 197.1 93.1C198 93.6 198.8 94.4 199.7 94.9C200.6 95.4 201.5 95.8 202.5 96.2C202.8 96.3 203.1 96.5 203.4 96.6C203.9 96.8 204.5 97.1 205 97.3C205.1 97.4 205.2 97.4 205.4 97.4C205.9 97.6 206.3 97.9 206.8 98C207.3 98.2 207.9 98.3 208.5 98.5C209.5 98.8 210.4 99.3 211.4 99.6C212.2 99.8 213 99.9 213.8 100.1C213.9 100.1 213.9 100.1 214 100.1C214.9 100.3 215.7 100.6 216.6 100.8C217.3 101 218.1 100.9 218.8 101.1C220 101.4 221.3 101.6 222.5 101.5C226.2 101.4 230 101.9 233.7 101.2C234.4 101.1 235.1 101.2 235.8 101.1C236.9 100.9 237.9 100.6 239 100.4C239.8 100.2 240.5 100.1 241.3 99.9C241.8 99.8 242.2 99.6 242.7 99.5C243.2 99.3 243.8 99 244.3 98.8C244.8 98.6 245.3 98.5 245.7 98.3C246.6 97.8 247.5 97.3 248.4 96.8C249.4 96.2 250.4 95.6 251.4 94.9C252.2 94.3 253 93.6 253.8 92.8C254.5 92.1 255.2 91.4 255.8 90.6C256.4 89.8 256.9 88.8 257.4 87.9C257.9 86.9 258.5 85.9 258.9 84.8C259.3 83.9 259.5 82.8 259.7 81.9C259.9 80.8 260 79.6 260.1 78.4C260.1 77.7 259.8 77 259.8 76.3C259.9 74.8 259.8 73.1 259.1 71.5Z" fill="#C2E2E0"/>
<path fill-rule="evenodd" clip-rule="evenodd" d="M335.2 44.3C335.1 43.4 334.9 42.5 334.8 41.7V41.6C334.6 40.9 334.3 40.3 334.1 39.6C333.9 39.1 333.8 38.6 333.6 38.2C333.3 37.5 332.9 36.9 332.5 36.3C332 35.6 331.6 34.8 331 34.2C330.5 33.5 329.9 32.9 329.3 32.4C328.8 31.9 328.3 31.5 327.8 31.1C327.3 30.7 326.7 30.4 326.2 30.1C325.4 29.6 324.5 29.2 323.7 28.8C323.2 28.6 322.6 28.5 322.1 28.3C321.3 27.9 320.5 27.6 319.5 27.6C319.4 27.6 319.3 27.6 319.2 27.6C318.2 27.4 317.2 26.9 316.2 26.9C313 26.9 309.7 26.4 306.5 27.2C305.8 27.4 305 27.3 304.2 27.5C303.2 27.8 302.1 27.9 301.1 28.3C300.4 28.6 299.6 28.8 298.8 29.1C298 29.4 297.3 29.7 296.5 30C296.2 30.1 295.8 30.3 295.5 30.5C295 30.8 294.5 31.2 294 31.5C293.2 32 292.3 32.5 291.6 33C291.1 33.4 290.6 33.8 290.2 34.2C289.5 34.8 288.8 35.4 288 36C287.8 36.2 287.6 36.4 287.2 36.8V1H286.1H265.1C264 1 264 1.00001 264 2.10001V89.4C264 92.6 264 95.8 264 99C264 99.7 264.3 100 265 100C272 100 279 100 286 100C286.8 100 287.1 99.7 287.1 98.9C287.1 84.1 287.1 69.2 287.1 54.4C287.1 54.1 287.1 53.9 287.1 53.6C287.1 53.5 287.2 53.3 287.3 53.2C288 52.4 288.7 51.6 289.4 51C290.2 50.3 291 49.8 291.9 49.3C292.4 49 292.9 48.7 293.4 48.4C293.8 48.2 294.3 47.9 294.8 47.8C295.4 47.6 296 47.4 296.7 47.3C297.8 47.1 299 46.7 300.1 46.7C301.2 46.6 302.4 46.9 303.5 47C304.6 47 305.6 47.4 306.6 47.7C307.5 48 308.3 48.4 309 49C309.6 49.5 310.3 50.1 310.7 50.7C311 51.3 311.5 51.9 311.7 52.7C311.9 53.6 312.4 54.5 312.4 55.5C312.4 56.5 312.4 57.5 312.4 58.5C312.4 72 312.4 85.4 312.4 98.9C312.4 99.8 312.7 100.1 313.6 100.1H334.3C334.4 100.1 334.6 100.1 334.7 100.1C335.2 100 335.5 99.8 335.5 99.2C335.5 90 335.6 80.9 335.5 71.8C335.4 62.5 336 53.4 335.2 44.3Z" fill="#C2E2E0"/>
<path fill-rule="evenodd" clip-rule="evenodd" d="M494.1 56.2C493.9 55.2 493.8 54.2 493.6 53.2V53.1C493.4 52.3 493.1 51.6 492.9 50.8C492.7 50.2 492.6 49.5 492.4 48.8C492.3 48.4 492.2 48.1 492 47.8C491.8 47.3 491.7 46.9 491.5 46.4C491.3 46 491.1 45.6 490.9 45.1C490.5 44.3 490.2 43.6 489.9 42.8C489.6 42.3 489.3 41.8 489 41.2C488.7 40.7 488.4 40.1 488 39.5C487.5 38.8 486.7 38.1 486.3 37.3C485.7 36.2 484.8 35.5 484 34.7C483.2 33.9 482.4 33.2 481.5 32.4C481.1 32.1 480.7 31.8 480.3 31.6C479.8 31.3 479.3 30.9 478.7 30.6C478.1 30.3 477.6 29.9 477 29.6C476.3 29.3 475.6 29 474.9 28.7C474.1 28.3 473.3 27.9 472.4 27.6C471.4 27.3 470.5 27 469.5 26.8C468.6 26.6 467.6 26.4 466.7 26.4C465 26.3 463.2 26.3 461.5 26.4C460 26.5 458.5 26.7 457 26.8C456.9 26.8 456.8 26.8 456.7 26.9C456 27.1 455.3 27.4 454.6 27.6C454 27.8 453.4 27.9 452.9 28.1C452.6 28.2 452.3 28.4 451.9 28.6C451.5 28.8 451.1 29 450.8 29.2C450.2 29.5 449.5 29.7 448.9 30.1C447.9 30.8 446.8 31.6 445.9 32.4C445 33.2 444.1 34.1 443.3 34.9C442.8 35.4 442.4 35.8 442 36.3C441.9 36.3 441.9 36.2 441.8 36.2V0.899994H419V1.5C419 34 419 66.5 419 99C419 99.8 419 99.9 419.9 99.9C426.9 99.9 434 99.9 441 99.9C441.8 99.9 441.9 99.8 441.9 99C441.9 96.9 441.9 94.7 441.9 92.6C441.9 92.3 441.9 92.1 442 91.7C442.3 92 442.5 92.2 442.7 92.4C443.4 93.1 444.1 93.9 444.9 94.6C445.6 95.3 446.3 95.9 447.1 96.5C447.6 96.9 448.2 97.3 448.8 97.7C449.4 98.1 450.1 98.5 450.8 98.8C451.4 99.1 452 99.4 452.7 99.7C453.2 99.9 453.8 100 454.4 100.2C455.2 100.6 456 100.9 456.9 100.9C457 100.9 457.1 100.9 457.2 101C458.1 101.6 459.2 101.5 460.2 101.6C463.1 101.7 465.9 101.9 468.8 101.3C469.6 101.1 470.5 101 471.4 100.9H471.5C472.2 100.7 472.8 100.4 473.5 100.2C474 100 474.5 99.9 475 99.7C475.5 99.5 476.1 99.2 476.6 99C477.3 98.7 477.9 98.3 478.6 97.9C479.2 97.5 479.8 97.1 480.4 96.7C481.1 96.2 481.9 95.9 482.5 95.3C484 93.7 485.9 92.4 487 90.4C487.6 89.4 488.5 88.5 489.2 87.5C489.8 86.6 490.3 85.6 490.8 84.7C491.2 83.8 491.6 82.9 492 81.9C492.3 81.1 492.6 80.4 492.8 79.6C493.1 78.7 493.4 77.9 493.6 77C493.9 75.7 494.2 74.4 494.4 73.2C494.6 71.9 494.7 70.6 494.8 69.3C494.8 68.9 494.8 68.4 494.8 68C494.9 66.8 494.6 65.6 495.1 64.5C495.3 64.1 494.9 63.5 494.9 63C494.4 60.6 494.5 58.4 494.1 56.2ZM471.2 66.4C471.2 67.2 471 68 470.8 68.9C470.6 69.8 470.4 70.7 470 71.6C469.6 72.5 469.1 73.4 468.5 74.3C468 75.1 467.5 76 466.8 76.8C466.2 77.5 465.5 78 464.8 78.6C464.1 79.2 463.3 79.7 462.5 80.1C462.1 80.3 461.5 80.4 461 80.6C460.3 80.8 459.7 81.1 459 81.3C458.9 81.3 458.7 81.4 458.6 81.4C457.6 81.4 456.5 81.4 455.5 81.4C454.5 81.4 453.5 81.5 452.5 81.4C451.7 81.3 451 81 450.3 80.7C449.8 80.5 449.3 80.4 448.9 80.3C447.9 79.9 446.9 79.6 446 78.9C445.4 78.4 444.6 78 444 77.5C443.2 76.9 442.6 76.1 441.9 75.4C441.8 75.3 441.8 75 441.8 74.8C441.8 67.9 441.8 61 441.8 54C441.8 53.4 442.2 52.8 442.6 52.4C443.4 51.6 444.4 50.8 445.3 50.1C446.1 49.6 447 49.2 447.9 48.8C448.7 48.4 449.5 48 450.4 47.7C450.9 47.5 451.4 47.4 451.8 47.3C453.2 47.1 454.7 46.9 456.1 46.9C457.1 46.9 458.1 47.1 459.1 47.3C459.9 47.5 460.8 47.7 461.5 48.1C462.7 48.7 464 49.2 464.9 50.2C465.7 51 466.6 51.7 467.3 52.5C467.7 53 468 53.6 468.4 54.1C468.7 54.7 469.1 55.2 469.3 55.8C469.5 56.3 469.7 56.8 469.9 57.3C470.1 57.9 470.3 58.5 470.6 59.1C470.6 59.2 470.7 59.3 470.7 59.3C471.3 61.6 471.3 64 471.2 66.4Z" fill="#C2E2E0"/>
<path fill-rule="evenodd" clip-rule="evenodd" d="M601.3 60.4C601.2 59.7 601.3 59 601.2 58.2C601 57.2 600.7 56.3 600.5 55.3C600.3 54.5 600.2 53.7 600 52.9V52.8C599.6 51.8 599.3 50.9 598.9 49.9C598.6 49.1 598.3 48.3 598.1 47.5C598 47.1 597.8 46.7 597.6 46.4C597.1 45.5 596.7 44.6 596.2 43.7C596 43.4 595.8 43.1 595.5 42.7C595.1 42.1 594.7 41.5 594.2 40.9C593.7 40.2 593.3 39.5 592.7 38.8C592.2 38.1 591.6 37.5 591 37C590.1 36.1 589.3 35.3 588.3 34.5C587.1 33.5 585.9 32.6 584.6 31.8C583.4 31.1 582.2 30.4 581 29.8C580.2 29.4 579.4 29.2 578.6 28.9C578.2 28.7 577.7 28.6 577.3 28.5C576.8 28.3 576.2 28 575.7 27.8C574.7 27.5 573.6 27.2 572.5 27C571.4 26.8 570.3 26.6 569.3 26.6C565.8 26.6 562.3 26.2 558.8 26.9C557.8 27.1 556.7 27.2 555.6 27.4C555.6 27.4 555.6 27.4 555.5 27.4C554.6 27.6 553.7 27.9 552.8 28.2C552.7 28.2 552.7 28.2 552.6 28.2C552 28.4 551.3 28.7 550.7 28.9C550.3 29.1 549.8 29.2 549.4 29.4C548.7 29.7 548.1 30.1 547.5 30.4C546.5 30.9 545.4 31.4 544.5 32C543.4 32.7 542.3 33.3 541.3 34.1C540.3 34.9 539.4 35.7 538.5 36.6C537.9 37.2 537.3 37.8 536.8 38.5C536.1 39.3 535.2 40 534.7 41.1C534.4 41.8 533.7 42.3 533.3 43C532.9 43.5 532.7 44.1 532.4 44.6C531.9 45.5 531.4 46.3 531 47.2C530.8 47.6 530.7 48 530.5 48.5C530.3 49 530.1 49.6 529.8 50.1C529.7 50.2 529.7 50.4 529.6 50.5C529.4 51 529.2 51.5 529 52C528.8 52.7 528.7 53.4 528.5 54C528.3 54.7 528 55.4 527.8 56.2C527.6 57 527.6 57.8 527.4 58.5C527.1 60 527 61.5 527 63C527 64.5 527.2 66 527.3 67.4C527.4 69 527.6 70.6 527.8 72.2C527.8 72.3 527.8 72.3 527.8 72.4C528 73.3 528.3 74.1 528.5 75C528.7 75.6 528.8 76.2 528.9 76.8C529 77.2 529.1 77.6 529.3 78C529.5 78.6 529.8 79.1 530 79.7C530.2 80.1 530.3 80.6 530.5 81C530.8 81.6 531.2 82.3 531.5 82.9C532 83.8 532.4 84.6 533 85.5C533.6 86.4 534.4 87.2 535 88.1C535.8 89.4 537 90.4 538.1 91.5C538.8 92.1 539.5 92.8 540.2 93.4C540.5 93.7 540.8 94 541.1 94.2C542 94.8 543 95.3 543.9 95.9C544.8 96.5 545.7 97 546.7 97.4C547 97.5 547.3 97.7 547.6 97.8C548 98 548.4 98.3 548.9 98.5C549.4 98.7 549.9 98.8 550.4 99C551.1 99.2 551.8 99.5 552.5 99.8C553.1 100 553.6 100.1 554.2 100.3C554.9 100.5 555.6 100.8 556.4 101C557 101.1 557.7 101.2 558.3 101.3C559.4 101.6 560.6 101.7 561.7 101.7C565.2 101.6 568.7 102.1 572.2 101.4C573.7 101.1 575.1 101.1 576.6 100.9C576.7 100.9 576.8 100.9 576.9 100.8C577.8 100.6 578.7 100.3 579.6 100.1C580.3 99.9 581 99.8 581.7 99.6C582.2 99.5 582.7 99.3 583.1 99.2C583.8 99 584.4 98.7 585.1 98.5C585.5 98.3 586 98.2 586.4 98C586.9 97.8 587.3 97.5 587.8 97.3C588.2 97.1 588.7 97 589.1 96.8C589.8 96.5 590.4 96.1 591 95.8C591.3 95.6 591.6 95.5 591.9 95.3C592.5 94.9 593 94.2 593.7 93.9C594.6 93.5 595.2 92.7 595.9 92C595.7 91.9 595.6 91.9 595.5 91.8C595 91 594.4 90.1 593.9 89.3C593.5 88.6 593.1 87.9 592.6 87.2C592 86.3 591.3 85.5 590.7 84.6C590.3 83.9 589.9 83.2 589.5 82.6C588.9 81.6 588.2 80.7 587.5 79.8C587.1 79.2 586.7 78.6 586.3 78C585.8 77.2 585.8 77.2 585.1 77.8C584.8 78.1 584.4 78.3 584.1 78.6C583.6 78.9 583 79.2 582.5 79.5C581.8 79.9 581.2 80.2 580.5 80.6C580.1 80.8 579.6 80.9 579.2 81.1C578.4 81.4 577.5 81.9 576.7 82.1C575.9 82.3 575.1 82.4 574.3 82.6C574.2 82.6 574.2 82.6 574.1 82.6C573 83.1 571.8 83.2 570.6 83.3C568.5 83.4 566.4 83.7 564.3 83C563.6 82.8 562.9 82.9 562.3 82.6C561.5 82.3 560.7 82.2 559.9 81.8C559.3 81.5 558.6 81.3 558 81C556.9 80.5 556 79.9 555.1 79C554.7 78.6 554.3 78.3 554 77.9C553.9 77.8 553.8 77.6 553.7 77.5C553 76.7 552.3 75.9 551.9 74.9C551.8 74.6 551.5 74.2 551.4 73.9C551.1 73.3 550.9 72.6 550.6 71.9C551.1 71.9 551.4 71.9 551.7 71.9C568 71.9 584.2 71.9 600.5 71.9C601.4 71.9 601.5 71.9 601.5 71C601.5 67.3 602 63.9 601.3 60.4ZM550.4 56C550.5 55.6 550.7 55.2 550.8 54.8C550.9 54.3 551.1 53.9 551.2 53.4C551.5 52.1 552.2 51.1 553.1 50.1C553.6 49.6 553.9 48.9 554.5 48.5C555.1 47.9 555.9 47.5 556.6 47.1C557.2 46.7 557.9 46.3 558.6 46C559 45.8 559.5 45.6 560 45.6C561.3 45.4 562.6 45.2 564 45.1C565.2 45 566.5 45 567.7 45.1C568.6 45.2 569.6 45.3 570.5 45.5C571.3 45.7 572.1 46 572.9 46.3C573.4 46.5 573.9 46.8 574.3 47.1C575.2 47.7 576.1 48.3 576.9 49.1C577.5 49.7 577.9 50.5 578.3 51.2C578.7 51.8 579.1 52.4 579.4 53.1C579.7 54 579.8 55 580 56.1H550.4V56Z" fill="#C2E2E0"/>
<path fill-rule="evenodd" clip-rule="evenodd" d="M499.8 1.89999V99.1C499.8 100.1 499.8 100.1 500.8 100.1C507.7 100.1 514.7 100.1 521.6 100.1C522.6 100.1 522.6 100.1 522.6 99.1V1.79999V1.10001H499.8V1.89999Z" fill="#C2E2E0"/>
</svg>
