<svg width="339" height="91" viewBox="0 0 339 91" fill="none" xmlns="http://www.w3.org/2000/svg">
<path d="M302.569 0.416962C307.113 0.432011 311.657 0.416962 316.201 0.424486C316.197 1.19953 316.197 1.97081 316.201 2.74585C314.418 2.74208 312.626 2.74585 310.842 2.74585C310.835 7.59549 310.838 12.4451 310.838 17.2948C309.866 17.291 308.893 17.291 307.92 17.2986C307.913 12.4451 307.924 7.59549 307.913 2.74585C306.133 2.74585 304.345 2.73832 302.565 2.74961C302.55 1.97081 302.554 1.192 302.569 0.416962Z" fill="#C2E2E0"/>
<path d="M319.6 0.420685C321.08 0.420685 322.568 0.424447 324.055 0.420685C325.732 4.64579 327.439 8.85961 329.115 13.0847C330.779 8.86714 332.456 4.65332 334.097 0.428209C335.569 0.420684 337.046 0.416922 338.522 0.428209C338.51 6.05291 338.541 11.6776 338.507 17.3023C337.538 17.291 336.569 17.291 335.604 17.2948C335.593 12.6671 335.619 8.03942 335.585 3.41551C333.659 8.01309 331.871 12.6671 329.995 17.2873C329.361 17.2873 328.734 17.2873 328.111 17.2835C326.251 12.6822 324.49 8.03942 322.541 3.47194C322.479 8.08081 322.529 12.6859 322.51 17.2948C321.537 17.2948 320.569 17.2948 319.6 17.2948C319.588 11.6701 319.588 6.04538 319.6 0.420685Z" fill="#C2E2E0"/>
<path d="M24.2222 18.4084C30.1811 18.0962 36.3514 19.4506 41.2684 22.8668C45.5164 25.7826 48.5727 30.1958 50.0797 35.0417C51.6867 40.2112 51.8943 45.7493 51.1139 51.0806C50.3911 55.6706 48.6189 60.1779 45.5587 63.7634C42.1679 67.8154 37.2394 70.4867 32.0341 71.5364C26.4212 72.6688 20.447 72.2888 15.1187 70.1706C10.6976 68.4174 6.8532 65.2947 4.3428 61.3141C1.24421 56.4494 0.0755052 50.6027 0.186993 44.9254C0.156238 38.8943 1.64018 32.6639 5.35388 27.7616C9.67115 21.9112 16.9717 18.6944 24.2222 18.4084ZM23.661 29.9249C20.8507 30.2861 18.2365 31.8174 16.6488 34.1275C14.5997 37.0997 13.9654 40.7642 13.8346 44.2858C13.7501 48.2061 14.196 52.3071 16.2259 55.7609C17.6329 58.1462 20.0818 59.9032 22.8383 60.4525C26.2136 61.1335 30.0081 60.7648 32.8376 58.703C35.3749 56.8181 36.7358 53.8007 37.3586 50.8097C38.0391 47.4047 38.0621 43.8757 37.497 40.4482C36.9626 37.4007 35.7708 34.2817 33.322 32.2162C30.7154 29.9776 26.9902 29.4396 23.661 29.9249Z" fill="#C2E2E0"/>
<path d="M73.8459 25.6058C77.7672 21.1323 83.8529 18.1827 89.9424 18.7395C89.9347 22.9495 89.9386 27.1634 89.9386 31.3772C86.075 31.411 82.046 31.554 78.4899 33.2094C76.9406 33.9958 75.3875 35.196 74.8185 36.8551C74.7647 48.1309 74.8147 59.4141 74.7916 70.6936C70.1399 70.6823 65.4881 70.7011 60.8364 70.6823C60.8287 53.6916 60.8479 36.7009 60.8249 19.7102C65.1652 19.6726 69.5055 19.6951 73.8459 19.6951C73.8536 21.6628 73.8536 23.6343 73.8459 25.6058Z" fill="#C2E2E0"/>
<path d="M108 20.1203C113.313 18.4573 119.025 18.3219 124.515 19.0932C129.132 19.8155 133.926 21.6064 136.821 25.3875C139.047 28.183 139.716 31.8588 139.474 35.3314C139.489 47.115 139.393 58.9062 139.543 70.6898C135.472 70.6898 131.401 70.6861 127.329 70.6898C126.929 69.215 126.534 67.7477 126.138 66.2766C122.574 68.5679 118.545 70.1744 114.339 70.8629C110.122 71.5213 105.597 71.6191 101.641 69.817C98.1887 68.3007 95.5053 65.2758 94.3904 61.7355C93.0179 57.4426 93.2678 52.4876 95.7321 48.6124C97.9388 45.1586 101.583 42.8824 105.32 41.2947C111.94 38.5369 119.11 37.3932 126.214 36.573C126.157 34.4849 126.603 32.0807 125.073 30.3613C122.912 27.9572 119.287 27.8067 116.261 28.0626C112.032 28.3899 108.123 30.6059 105.478 33.8189C102.375 32.0958 99.2651 30.3802 96.1857 28.6156C99.0383 24.6125 103.263 21.6026 108 20.1203ZM113.574 47.5326C111.437 48.4431 109.287 49.7035 108.088 51.7314C106.477 54.35 106.777 57.9769 108.857 60.2682C109.949 61.4081 111.536 62.0778 113.14 62.0365C117.918 62.123 122.351 59.7226 125.826 56.6676C125.807 52.6908 125.83 48.714 125.815 44.741C121.659 45.2564 117.465 45.9562 113.574 47.5326Z" fill="#C2E2E0"/>
<path d="M175.957 19.0254C180.309 18.2165 185.015 18.3633 189.101 20.1805C192.142 21.5274 194.445 24.1798 195.556 27.2461C196.41 29.5261 196.748 31.9679 196.802 34.3908C196.802 46.4642 196.802 58.5375 196.802 70.6108C192.227 70.6108 187.652 70.6183 183.077 70.6108C183.077 59.2599 183.081 47.9127 183.073 36.5617C183 34.3306 182.754 31.8813 181.213 30.1168C179.652 28.4576 177.137 28.3335 174.996 28.5667C170.744 29.0859 167.057 31.4788 163.836 34.1049C163.836 46.2723 163.836 58.4397 163.836 70.6108C159.284 70.6108 154.74 70.6146 150.192 70.6108C150.192 54.1017 150.184 37.5926 150.192 21.0797C153.994 20.5567 157.8 20.0413 161.602 19.5334C161.964 21.5312 162.425 23.5177 162.825 25.5117C166.808 22.6975 171.079 20.0112 175.957 19.0254Z" fill="#C2E2E0"/>
<path d="M211.614 26.4448C214.824 22.1068 219.914 19.0631 225.404 18.6568C228.937 18.4574 232.57 18.7696 235.865 20.0902C238.371 21.0835 240.709 22.7728 241.908 25.207C242.243 23.3296 242.619 21.4597 242.919 19.5823C246.787 19.4845 250.658 19.5635 254.529 19.5409C254.529 36.3585 254.529 53.1724 254.529 69.9901C254.449 74.9488 253.326 80.2311 249.739 83.9408C245.737 88.0756 239.809 89.6407 234.196 90.19C227.722 90.7995 220.821 90.4496 215.016 87.2893C211.299 85.3103 208.362 81.8113 207.543 77.6878C212.056 76.9767 216.566 76.2619 221.079 75.5508C221.433 76.8526 222.048 78.1769 223.247 78.9331C225.654 80.4644 228.656 80.5585 231.436 80.5208C234.081 80.5133 236.933 79.8097 238.763 77.8195C240.77 75.6147 241.193 72.5221 241.281 69.6815C241.258 67.537 241.335 65.3887 241.228 63.2442C239.855 65.4226 238.221 67.5521 235.899 68.82C232.558 70.6823 228.564 70.8366 224.827 70.4867C219.707 69.96 214.751 67.4843 211.572 63.4699C207.562 58.5337 206.159 52.0512 206.101 45.8584C205.967 39.0712 207.431 31.9867 211.614 26.4448ZM228.345 28.3072C226.342 28.6646 224.493 29.7293 223.182 31.2531C221.298 33.4051 220.426 36.2118 220.026 38.9734C219.603 42.1149 219.691 45.3016 219.991 48.4507C220.36 51.5433 221.118 54.8316 223.401 57.1379C225.1 58.9476 227.684 59.7114 230.136 59.6361C232.77 59.7001 235.499 58.846 237.376 56.9761C239.436 54.9106 240.397 52.0512 240.885 49.2558C241.32 46.6034 241.435 43.902 241.328 41.2195C241.097 37.5587 240.009 33.7475 237.333 31.0687C235.057 28.7398 231.559 27.7278 228.345 28.3072Z" fill="#C2E2E0"/>
<path d="M268.688 26.061C272.191 21.8886 277.48 19.4431 282.897 18.8035C288.948 18.1074 295.461 18.8223 300.674 22.1256C304.926 24.7705 307.871 29.1047 309.32 33.7851C310.638 38.1005 311.077 42.6755 310.688 47.1639C299.194 47.1602 287.703 47.1677 276.216 47.1602C276.239 50.5726 276.762 54.1468 278.665 57.0739C280.206 59.4555 282.878 60.9792 285.704 61.3818C288.622 61.7957 291.739 61.6264 294.411 60.2945C296.783 59.1244 298.613 57.1492 300.116 55.0385C303.465 56.8745 306.825 58.703 310.189 60.5127C307.105 65.8853 301.404 69.4482 295.345 70.7462C289.156 72.0292 282.49 72.0518 276.55 69.7078C271.925 67.9095 268.104 64.3465 265.878 59.9973C263.006 54.4177 262.418 47.9992 262.822 41.844C263.241 36.2043 264.921 30.4517 268.688 26.061ZM279.403 30.7037C277.473 32.8031 276.65 35.6512 276.423 38.4128C283.405 38.4278 290.386 38.4165 297.368 38.4203C297.295 35.7001 296.66 32.8332 294.757 30.7602C292.604 28.3636 289.164 27.4982 286.011 27.7277C283.539 27.8745 281.063 28.864 279.403 30.7037Z" fill="#C2E2E0"/>
</svg>
